<?xml version="1.0" encoding="utf-8"?>
<!-- Generator: Adobe Illustrator 27.9.0, SVG Export Plug-In . SVG Version: 6.00 Build 0)  -->
<svg version="1.1" id="Calque_2_00000008862702569988835040000005494469794226723482_" xmlns="http://www.w3.org/2000/svg" xmlns:xlink="http://www.w3.org/1999/xlink" x="0px" y="0px" viewBox="0 0 238.8 675.2" style="enable-background: new 0 0 238.8 675.2" xml:space="preserve">
<style>.st0 {
  fill: #a63c75;
}

</style>
<g id="Calque_1-2">
	<g>
		
			<image style="enable-background: new; overflow: visible" width="1356" height="3985" xlink:href="/C75752632A16BFF5.042179c8.png" transform="matrix(0.17 0 0 0.17 2.3639 23.5542)">
		</image>
		<g>
			<path class="st0" d="M9.1,614.4c-0.2-0.8-0.8-0.4-0.9,1.8l0.9,1.7V614.4L9.1,614.4z"></path>
			<path class="st0" d="M7.4,629.2c0.3,0.6,0.8,1.1,1.2,1.6c0.4,0.5,0.8,0.9,1.2,1.2c0.8,0.6,1.3,0.6,1.3-0.3c-1-0.8-1.5-1.5-2-2.1
				c-0.4-0.7-1-1.3-1.9-2.5c-0.1-0.2-0.2-0.5-0.2-0.7c-0.1-0.2,0-0.4,0-0.6c0.1-0.4,0.2-0.8,0.2-1.2c0.2-0.6,0.4-1,0.6-0.8
				c-0.2-0.8,0.5-3.5-0.1-4.8c-0.5,1.4-0.8,3.1-1,4.9c0,0.5-0.1,0.9-0.1,1.4l0,0.7v0.3c0,0.1,0.1,0.2,0.1,0.3
				c0.2,0.4,0.4,0.8,0.6,1.2c0.2,0.4,0.5,0.8,0.7,1.2C8.2,630,7.7,629.3,7.4,629.2L7.4,629.2z"></path>
			<path class="st0" d="M218.4,654.5c-0.5,0.1-1,0.2-1.5,0.3C217.3,654.8,217.8,654.7,218.4,654.5z"></path>
			<path class="st0" d="M236.9,521.9c0.1,1,0.1,1.5,0.2,1.5C237.1,522.5,237,521.7,236.9,521.9z"></path>
			<path class="st0" d="M237.4,498.5c0,0.5,0,0.9,0,1.4C237.5,499.3,237.5,498.8,237.4,498.5z"></path>
			<path class="st0" d="M218.4,654.5c1.2-0.3,2.5-0.6,3.8-1.2c0.1-0.2-0.4,0-1.1,0.3C220.3,653.9,219.3,654.3,218.4,654.5z"></path>
			<path class="st0" d="M30.2,647.1c-0.7-0.2-1.3-0.4-1.9-0.6c0.6,0.2,1.1,0.4,1.7,0.7C30,647.2,30.1,647.2,30.2,647.1z"></path>
			<path class="st0" d="M158.2,662.8l-1.1,0.1c-0.3,0.1-0.6,0.3-0.9,0.5L158.2,662.8L158.2,662.8z"></path>
			<path class="st0" d="M111.7,663.6c1.1,0.1,1.4-0.8,1.8-1.1c-0.6,0.3-1.4,0.5-2.3,0.5C111.2,663.2,111.3,663.4,111.7,663.6z"></path>
			<path class="st0" d="M38.6,653.8c-0.4-0.1-0.9-0.2-1.3-0.3C37.7,653.6,38.2,653.8,38.6,653.8z"></path>
			<path class="st0" d="M191.4,659.9c0.1,0.1,0.3,0.2,0.5,0.2C191.9,660.1,191.7,660,191.4,659.9z"></path>
			<path class="st0" d="M14.2,560.8c-0.1,0-0.1,0-0.1,0C14.1,561.1,14.2,561.2,14.2,560.8z"></path>
			<path class="st0" d="M6.9,614.3v-0.8c-0.1-0.1-0.3-0.2-0.4-0.2L6.9,614.3L6.9,614.3z"></path>
			<path class="st0" d="M236.9,455.6c0,0.1,0,0.1,0,0.2C237,456.9,237,456.3,236.9,455.6z"></path>
			<path class="st0" d="M182,71.8c-0.2,2.3-0.6,0.5-1-1c-0.4-1.5-0.8-2.7-0.9,0.7C180.5,70.8,182.1,77.5,182,71.8L182,71.8z"></path>
			<path class="st0" d="M31.2,647.7c0.6,0.2,1.1,0.5,1.7,0.7C32.1,648,31.6,647.8,31.2,647.7z"></path>
			<path class="st0" d="M180.2,71.5L180.2,71.5v0.7C180.2,71.9,180.2,71.7,180.2,71.5L180.2,71.5z"></path>
			<path class="st0" d="M232.3,356.9c-0.1,0.2-0.2,0.6-0.3,1C232.1,357.9,232.2,357.7,232.3,356.9z"></path>
			<path class="st0" d="M234.1,430.6l0-1.8C234.1,429.5,234.1,430.1,234.1,430.6z"></path>
			<path class="st0" d="M221.4,319.5c-0.4-0.9-0.4-1.3-1.2-2.4c0,0.1,0.1,0.3,0.1,0.4C220.7,317.8,221,318.4,221.4,319.5
				L221.4,319.5z"></path>
			<path class="st0" d="M201.6,285c0,0.2,0.1,0.5,0.2,0.7c0.2,0.3,0.4,0.7,0.6,1.1L201.6,285L201.6,285z"></path>
			<path class="st0" d="M11,439.8c-0.2,0.9-0.4,1.5-0.6,1.9C10.9,441.1,11.5,446.9,11,439.8z"></path>
			<path class="st0" d="M30,647.6c0.3-0.1,0.6-0.1,1.2,0.1c-0.4-0.2-0.8-0.3-1.2-0.5C29.8,647.3,29.8,647.4,30,647.6z"></path>
			<path class="st0" d="M214.8,321.1c-0.9-1.8-1.9-3.7-2.9-5.5C212.7,317.1,213.8,319.1,214.8,321.1z"></path>
			<path class="st0" d="M58.2,168.3v1.4C58.3,169.2,58.3,168.7,58.2,168.3z"></path>
			<path class="st0" d="M202.5,299.6c-0.3-1.1-0.8-2.2-1.4-3.3c-0.2-0.2-0.4-0.4-0.6-0.5L202.5,299.6L202.5,299.6z"></path>
			<path class="st0" d="M10.4,441.7L10.4,441.7C10.4,441.7,10.4,441.7,10.4,441.7z"></path>
			<path class="st0" d="M14.7,483.2c-0.2-6-1.2-2.8-1.9-4c-0.6-7.2,0.7-3.4,1.1-5.8c-0.5-4.5-1.7-7.9-1.9-11.2
				c0.2-0.3,0.2-0.9,0.5-0.2c-0.6-2.4-0.8-5.9-1.1-9.5c-0.3-3.6-0.6-7.3-1.3-10c0.1-0.4,0.1-0.6,0.2-0.7c-0.5,0.9-1.1,1.1-1.5,1
				c-0.2-2.7-1-4.9-0.4-6c0.1,1.6,0.4,1.8,0.7,2.5l-0.5-2.8c0.9-2.6,0.6,3.8,1.4,3.8c-0.7-5.5-2.1-11.8-2.1-16c1-1,1.1,9.8,1.6,4.1
				l0.1,6.5c1.2-5.1,0.2,4,1.6-0.7c-0.3-8.6-1.2-9.6-1.6-18.1c-0.7-1.9-0.8,0.7-1.5-1.2c-2-12.1,1.7-9.8-0.2-18.5
				c-0.8-2.2-2.2-3.1-1.8-9.4l1.2,2.1c-0.1-4.1-0.6-5.3-0.9-6.5c-0.3-1.2-0.7-2.5-0.3-6.8c0.4,1.5,0.4,6.5,0.6,5.2
				c0.8-5.6-0.7-3.9-0.7-8.2l1-0.9C7,363,7,353.4,9,344c0.2,0.6,0.1,2.2,0.9,0.1c0.6-2.9,1.4-5.9,2.4-8.9c1-2.9,2.3-5.8,3.8-8.6
				c1.5-2.7,3.2-5.3,5-7.8c1.9-2.4,3.8-4.6,5.8-6.6c0.8-1.3,1.6-2.5,2.4-3.8c0.7-0.7,1.6-1.1,1-0.2c3.5-3-0.2-0.6,1.1-2.4
				c1.8-1.9,2.8-2.1,1.8-0.8c2.6-3.2,6.7-7.8,9.9-13.3c3.2-5.5,5-11.5,6.4-15.9c0,0.6-0.1,1.2-0.1,1.8c1-3.4,0.8-5.5,0.7-7.4
				c-0.1-1.9-0.2-3.8,0.5-6.9l0,1.2c0.5-3.7,0.7-7.4,1-11.2c0.2-3.7,0.5-7.5,0.7-11.1c0.5-7.2,1.1-14,2.2-19.6
				c-1.1-2.2,1.6-14.4-0.2-15.4c1.5-8.3,1.6-5.9,3-17.5c0.3-3.1-0.8-4.7-0.7-8.6l0.9,0l-0.6-5.3l1.3-2.7v-3.6
				c-0.1,1.4-0.6,3.1-0.9,2.8c0-5.7,1.6-13.8,2.1-13.9l0.1-13.5c0.3,0.3,0.3,2.6,0.4,4.4c-0.5-7.2,1.1-1.2,0.7-7.9
				c-0.3,0.9-0.5-0.5-0.7-0.7c0.8-3.2,1.3-10.7,1.4-16.2l0.6,1.1c0.8-9.9,1.1-21,1.9-32.2c-0.6,4-1.6,3-1.5-0.3l1.1-1.2
				c-0.5-2.2-0.6,3.4-1-1c0.4-4.2,1.3-2.7,1.5-0.3v-5.1c0.3-0.3,0.4,0.9,0.7,1.3c-0.5-2.1,1.6-8.7,0.7-11.8l0.3-0.3
				c0.4-5.6,0.5-9.7,0.8-13.3c0.3-3.6,0.7-6.9,1.9-10.8c-0.8-0.4,0.4-3.4,1.1-5.8c1.8-2.5,3.8-4.9,6.6-6.7c2.7-1.9,5.9-3.4,9.3-4.7
				c1.2-0.5,1.9-0.9,2.3-1.1c0.4-0.2,0.5-0.3,0.4-0.4c0-0.2-0.4-0.3,0.7-0.8c0.6,0.5,8.1-1,4.2,0.3c1.1-0.3,2.2-0.4,3.1-0.5
				c1-0.2,1.9-0.3,2.7-0.4c0.9-0.1,1.7-0.2,2.5-0.3c0.8-0.1,1.6-0.1,2.4-0.2c3.3-0.2,6.9-0.5,13-0.5c-1.3-0.4-2.8-0.5-2-0.8
				c2.2-0.1,5,0.5,4.7,0.9l-0.6,0.1c6.8-0.2,14.7,1,21.7,2.9c3.5,1,6.9,2.1,9.9,3.3c3,1.2,5.6,2.3,7.9,3.3l-0.5-0.2
				c0.8,0.4,1.6,0.7,2.3,1.2l2.2,1.4c1.4,1,2.8,2,4,3.3c0.8,0.9,1,1.3,0.9,1.3c0,0-0.3-0.2-0.7-0.5c-0.7-0.5-1.6-1.1-0.6,0.3
				c0.5,0.4,0.9,1,1.4,1.4c0.4,0.5,0.8,1,1.2,1.5c0.7,1,1.3,2,1.9,3c1,2.1,1.7,4.1,2.2,6.2c1,4.2,1.5,8.3,2.4,13.1
				c-0.4,2-0.4,4.7-0.2,7.8c0.1,3.1,0.5,6.6,0.8,10.2c0.6,7.2,1.2,14.8,0.7,20l0.5-0.6c0.6,2.7-0.2,3.3-0.2,5.3
				c0.4-0.3,0.4-3,0.7-1.3c1.4,23-0.1,47.6,0.5,71.4c0.3,8.7,3,4.8,2.4,15.8l-1.2-3c1.2,8.6,1.4,17.5,1.8,26.4
				c0.3,8.9,0.8,17.9,2.7,26.5c-0.4-1-0.7-1-0.9-2.7c-0.1,0.9,0.1,2.3,0.3,3.7c0.2,1.4,0.5,3,0.9,4.5c0.4,1.4,0.8,2.8,1.1,3.7
				c0.4,1,0.7,1.5,0.8,1.5c0.6,2.7-0.4,0.8-0.2,2.5c0.2,1.9,1.2,4.1,2.1,6c0.8,2,1.7,3.7,1.7,4.8c0,0.4-0.6-0.9-0.9-1.5
				c0.6,1.1,1.6,3.8,2.6,5.8s1.8,3.5,1.6,2.2c1.1,3.1,2.8,5.8,4.2,8.4c1.5,2.6,3.1,4.9,4.2,7.3c2.6,2.3,5.3,9.5,6.9,9.8
				c-0.7,0.1,0.5,2.7,2.1,5.6c1.6,2.9,3.7,6.2,4.9,7.8c-1-1,1.2,3.3,0,2.1c2.2,4,3.8,7.5,4.2,6.6c0.7,4,2.1,7.8,3.2,11.3
				c1,3.5,1.8,6.8,1.1,9.2c2.6,13.2,3.3,25.9,3.9,38.2c-1.4-0.4-0.5-13.6-1.9-13.1c0.5,5.8,1,10.4,1.5,15c0.5,4.6,0.8,9.2,0.9,15
				c-0.1,3-0.6-1.7-0.9-2.7c1,11.7,0.7,22.7,1.9,33.1c-0.1,0-0.3-1.1-0.5-2.2c0.1,2.1,0,4.8,0.6,4.5l-0.2-2c0.8-3.3,2.2,8.1,2.7,8.4
				c-1.9-3.4,0,10.3-2.5,4.9c0.2,1.4,0.5,3,0.9,2.7c0,2-0.2,2.7-0.8,0.6c0.6,7.3,1.2,4.7,1.5,11.4c-0.3,0-0.5-1.4-0.9-2
				c0.7,3.4,1.4,6.7,1.4,12.4c-0.2-0.3-0.4,0.3-0.5-1.4c0.5,9.7,2.2,16.4,2,27.1c-1.4-3.1-0.3,3.6-1.4,4.2l0.5,5.7l0.5-2.3
				c0.1,5,1,9.4,0.8,13.7l-0.5-3.7l0.4,9.4l0.3-5.3c0.7,5,1.4-0.6,1.2,6.1c-0.1-1.4,0,5-0.6,7.6v0c0.4,2.5,0.8,5,0.5,8.7
				c-0.4,1-1.2-0.8-1.5-0.1c0.9,2.4,0.2,11.7,1.2,14.8c-0.2-1-0.8-1.1-0.9-0.8l0.7,2.1c-0.3,2.3-0.4,2.7-0.9,2.3
				c-0.3,7,1.5-2.2,0.7,6.1c-0.1-0.7-0.2-0.3-0.3-1.7c-0.4,8.3,0,16-0.6,23.7c-1.2,2.2,0-6.7-1.1-4.1c0,2.8-0.1,5.5-0.1,8.3
				c0,2.8,0,5.7-0.1,8.5c-0.1,5.7-0.4,11.2-0.9,16.5l0.3-2c1.5,1.6-1.6,7.8-1.4,13.2c0-1.3-0.7-1.8-0.6-1.4
				c-0.5,3.6-0.7,7.4-1.3,11.3c-0.4,1.9-0.8,4-1.8,5.9c-0.9,1.9-2.4,3.7-4.6,5c0.3-0.3,0.6-0.7,0.8-1c-1.7,0.9-4.1,1.8-6.8,2.5
				c-2.6,0.6-5.6,1-7.9,1.3c-1.3,0.6-3.9,1-2.2,1.3c-7.2,0-13.9,1.1-20.4,2.2c-6.5,1.1-12.9,2.1-19.3,1.6c1.5-0.1,3.6-0.6,2.4-0.5
				l-5.4,0.6l-5.4,0.5c0.9,0.6,1.4,0.3,3.7,0.7c-1.3,0.5-4.4,1-7.1,1.2c4.8-0.8-0.1-1.1-2.2-1.4c0.4,0.2-0.4,0.5-0.2,0.7
				c-5.7-1-0.9,1.5-8.6,0.9l0.4-0.4c-2.9,0.2-5.5,0.8-8.6,0.8c-1.3-0.8,3.1-0.5,3.2-1.1c-4.4,0.2-8.6,1.6-12.6,0.8
				c1.9-0.2,4.5-0.2,6.4-0.5c-4.3-0.9-4.8-0.7-8-0.8l0.3,0l-7.4-0.5l1.9,0.3c-2.8,1-5.5,1-8.6,0.9c-3-0.1-6.3-0.3-10,0.2
				c7.2-0.9,1.2-0.7,1.8-1.6c-1.9-0.3-4.7-0.8-3.9-1c-3.5,0.5-5.7-1-10.7-0.2c-0.2-0.3-3.7-0.3-2.9-1c-4.5-0.2,1,0.6,0.6,0.9
				c-7,0.4-16.2-2.7-26.2-2.6c-4.3-0.3-6.8-0.4-9.4-0.5c-2.5-0.1-4.9-0.2-8.9-1c-1.2-0.6-0.6-0.7,0.3-0.7c0.9,0,2.1,0.2,2.1,0.2
				c-4.1-1.5-7.2-2.4-11.1-3.6c0.9,0.1,0.2-0.5-0.9-1.2c-1.5-0.6-2.1-0.6-2.8-0.7c-0.7-0.1-1.5-0.3-3.3-1.5c0.8,0.1,1.9,0,3.4,0.4
				c-1.8-0.7-3.5-1.4-5.2-2.2c-1.7-0.8-3.4-1.7-5-2.9c-0.2-0.5,0.3-0.3,1.1,0.1c0.8,0.4,1.8,1,2.5,1.2c-1.9-1.1-4.1-2.7-6-4.3
				c-1.9-1.6-3.3-3-4-3.4c0.5,0.8,1,1.6,1.5,2.4c-1.1-1.2,0-1.1,0.9-0.3c0.7,0.6,1.3,1.1,1.8,1.6c0.5,0.5,0.9,0.9,1.1,1.3
				c0.5,0.7,0.7,1.3,0.7,1.5c-0.8-0.5-1.5-1.1-2.2-1.7c0.5,1.6,2.7,3.5,5.6,5c2.8,1.6,6.2,2.7,8.8,3.9c-0.9,0.1-1.8,0.1-2.7,0.1
				c1.9,0.5,3.9,1,5.9,1.4c1,0.7,1.7,1.7-1.1,0.9c3.7,2,3.6,0.8,6.8,2.6c0.3,0.2,0.2,0.2-0.2,0.2c1.3,0.3,2.7,0.5,4,0.7
				c-0.8,0,0.4,1-2,0.2c3.5,1.3,6.4,1.7,8.8,1.9c2.4,0.2,4.2,0.4,5.5,1l-0.6,0c5.1,0.5,5.3,0.3,5.3,0c0-0.3-0.4-0.8,3.5-0.8l4.8,2.9
				l1.1-0.8c1,0.1,3.1,0.4,2.7,0.8c3.9-0.2-0.6-0.5,1.7-0.8c2.4,0.7,5.9,0.9,8.9,1.1c3,0.2,5.4,0.5,5.9,1.3c1.8-0.6-4.8-0.9,0.6-1
				c0.7,0.8,2.3,0.9,4.2,0.8c1.9,0,4.3-0.2,6.5,0.3c-1.4,0.7-5.8,0.1-1.2,1c2.8-1.2,8.9,0.8,12.8,0.6c0.1-0.5,2.2-0.6,5.1-0.5
				c2.9,0,6.6,0.2,9.8,0c-0.2,0.2,2.8,0.3,6.7,0.5s8.6,0.1,11.6,0.3l-0.2,0.2c1.1-1.2,7.4-1.2,11.9-1.7c-0.1,0.7-0.9,1-3.4,1.4
				c1.4,0,2.9-0.2,4.3-0.2c1-0.4,2.3-0.7,5.1-1l-1,0.9c2.8-0.2,5.7-0.7,8.7-1.1c3.1-0.4,6.3-0.8,10-0.9c0.3-0.8-6-1.6,1.6-2.8
				c0.3,0.4,0.7,1.1-1.3,1.4c0.6-0.1,2.3-0.6,3.7-0.5c-1,0.4-2,0.7-3,1c3.4,0,1.7-0.8,4.3-1c0,0.6,2,0.2,1.7,0.7
				c-0.7,0.1-2.3,0-3.3,0.4c3-0.2,6.6-0.3,7.9,0c-0.3-0.3-0.1-0.8,2.1-1.1c5.6-0.8,2,0.5,5.4,0.3c0.7-0.3,1.9-0.5,3-0.7
				c1.1-0.2,2-0.5,2-0.9c1.6-0.2,2,0.1,2.7,0.2c1.4-0.4,4.8-0.9,7.5-1.5c2.7-0.6,4.5-1.3,2.7-1.3l-0.8,0.1c0.1,0,0.3-0.1,0.5-0.2h0
				h0c2.4-0.8,4.8-1.7,7-3.1c2.2-1.4,4.1-3.4,5.4-5.7c1.3-2.3,2.1-4.8,2.6-7.3c0.5-2.5,0.8-4.9,0.9-7.3l0.3,0
				c0.2-5.7,1.2-12.7,0.8-16.8c0.1-1.7,0.9-3.9,1.1-3.2c0.1-2.2,0-3.4,0.1-4.9c0.1-1.5,0.2-3.2,0.6-6.3c0.3,4.4,0.6-1.5,0.1,4.5
				c0.6-5.7,1.1-6.9,0.7-13c0.6,2.1,1.2-4.2,1-6.9l-0.7,4c0-3,0.2-5.7,0.3-8.4l0.9,1.5c0.4-2.9,0.5-5.7,0.5-8.3
				c-0.1-2.7-0.2-5.2-0.4-7.6c-0.2-2.5-0.3-4.8-0.3-7.1c0-2.3,0.2-4.5,0.7-6.7c-0.7-3.1-0.5,6.3-1.3,3.5c0.1-5.3,1.6-10.9,1.6-12.6
				c0.5-7.3-1.5-6.8-1.2-14.5c-0.4,1-1.3,1.9-1.7-3.8c0-5.3,1.4-6.6,1.7-3.2c0.1,1.3-0.1,1.9-0.2,1.8c0.2,1.7,0.4,4,0.7,1.9
				l-0.4-0.7c0.3-2.7,0.1-10,0.7-8.3c-0.4-4-0.6-1.7-0.7,1.3c0.4-6.9-0.2-10.7-0.1-17.8c-0.2,1.1-0.6,2.2-0.6,1.1
				c0.1-10.4-0.8-4.5-1.2-11.5c0.4-4,1.4,1.4,0.6-5.6c0.2-4.3,0.9-1,1.3,0.8c-0.9-6.4,0-12,0-15.7l0.4,3.4c-0.2-2-0.3-3.7-0.4-5.4
				l-0.6,2c0.1-2,0-3.7,0.3-3.6c-0.6-2-1.1,1.6-1.9-2.4c0.2-2.7-0.7-8,0.2-9c0,8.3,0.9-1,1.4,6.1c-0.2-1.4-0.2-3-0.2-5
				c0.1-0.3,0.2,0.3,0.3,0.8c0.5-8-1.2-3.6-1.6-11.9c0.6,1,0.9-2,0.8-3.3c0.1,3.3-0.8,1.6-1.4-1.4c0.2-5.3-0.6-5.7-0.6-8.5l-0.1,3.2
				c-0.6-1-0.6-3.7-0.9-7.4c0.4-0.3,0.4,3.3,0.6,2c-1.1-4,0.6-9.3-0.3-15c0.3-2.7,1-0.3,1.1-2.6c-0.9-6.4,0.5-7-0.3-13.6
				c-0.6,2-0.5,2.3-1.3-2.4l0.9,11l-1.3-7c0.1,3.3,0.7,7,0.6,9c-0.7-3.4-0.5-3-1.1-1.4c0.9-4.6-0.9-9-0.4-14.3l1.8,0.1
				c0.5-7.9-1.2-14.1-1.3-24.4l-0.1,3.4c-0.8-1.4-0.4-6.4-0.9-9.7c0.6,0.3,0.7-1.9,0.9-3.3c-0.4,0.2-0.7-7.6-2.1-8.4
				c0.1-1.6,0.1-3.2,0.1-4.7c-0.5-4.2-1.5-6.5-2.5-8.8c-0.5-1.1-1-2.2-1.6-3.5c-0.5-1.3-1.1-2.8-1.8-4.7c0.7,1,0.9,0.7,1.1,0.6
				c0.2,0,0.7,0.3,1.7,2.9c-0.4-1.3-0.9-2.6-1.2-3.5c-0.4-0.9-0.6-1.5-0.9-1.4c-0.2-0.8-1.1-2.6-2.1-4.3c-1-1.7-2.1-3.5-2.5-4.7
				c-0.8-0.9-1.5-0.9-2.9-3.6c-0.1-0.4,0.3-0.1,0.3-0.1c-0.3,0.1-2.6-3.9-1.9-1.3c-1.2-4-4.1-9-7.1-13.8c-3-4.8-5.9-9.4-6.9-12.9
				c-3-4.9-6-11.2-7.8-16c0.3,0.2,0.3-0.1,0.6,0.9c-0.6-1.7-0.9-2.8-1.3-3.6c-0.4-0.8-0.8-1.3-1.2-1.8c-0.8-1-1.5-2.3-2.3-6.3
				c0-2.2,0.3-1.1,0.7,0.1c0.4,1.2,0.8,2.7,0.6,1.4c0.4-0.4,0.4-1.2,0.2-2.2c-0.1-1.1-0.5-2.4-0.9-3.8c-0.4-1.4-0.8-3-1-4.6
				c-0.1-0.8-0.2-1.6-0.3-2.3c-0.1-0.8,0-1.5,0-2.2l0.3,1.3c0.1-4.2-1.9-10.1-2.1-17.1c0,0,0.2,0.3,0.3,0
				c-1.2-4.7-1.9-13.7-2.5-20.4c0.9,2.1,0.5,3,1.3,1.7c-0.2-3-1.2,0.9-1.7-5.1c0.4-2,0.4-6.3,1.2-7l0.4,5.7c0.9-3-0.5-7.4-0.4-10.3
				l0.5,0.4c-0.3-4.3-0.8-6.5-1.2-8.7c-0.4-2.3-0.8-4.6-0.9-9.3l-0.3,1c-1.4-5.1,0.5-4.3-0.5-9.3l1.1-1.6
				c-0.4-3.4-1.4-11.8-1.7-17.8c0.9,3.4,1.5,10.5,2.1,14.8c-0.1-3.3-0.3-11.3-0.9-13.1c0.1,1.3,0.5,3,0.3,4.4
				c-1-4.1-1.6-9.4-1.6-16.1c2.3,1.1,0.3-17.3,1.9-22.2c-1.2-11.8-0.4-23.4-1.8-37.2c-1.4,5-0.4-4-2.2-3c-0.4-3.2-0.5-4.4-0.4-4.7
				c0-3.3,0-6.6-0.3-9.9c0-1.2,0.3-0.5,0.6,0.5c0.3,1,0.6,2.3,0.7,2.1c-0.5-3.6-0.6-4.4-0.4-4.9c0.1-0.5,0.4-0.7,0-3.2
				c-0.4,1.2-1.4-2.3-3.1-6.4c0.6,2,1,4,1.3,6c-2-4.8-2.8-7-3.6-9.2c-0.4-1.1-1-2.2-1.8-3.5c-0.2-0.3-0.4-0.7-0.7-1.1
				c-0.3-0.4-0.6-0.7-1-1.1c-0.4-0.4-0.8-0.8-1.2-1.2c-0.2-0.2-0.4-0.4-0.7-0.6c-0.2-0.2-0.5-0.4-0.8-0.6c1,0.6,1.9,1.4,2.8,2.1
				c-1.9-2.1-5.9-5.7-10.4-8.1c-4.5-2.5-9.3-3.8-12-3.8c-0.8-0.5-1.9-1.3,0.4-0.8c-6.1-2-13.1-2.7-19.6-3.1
				c-6.5-0.3-12.6-0.4-17.3-1l0.9-0.4c-1.2,0-2.2,0.2-3.2,0.4c-1.1,0.1-2.2,0.2-3.7,0c0.2-0.2,0.9-0.5-0.2-0.5
				c-1.2,0.1-6.1,1-9.2,1.1l2.6-0.8c-6.1,0.2-10.9,1.4-15.1,3.1c-4.2,1.8-8.1,4-12.2,7.3c-0.2-0.3-0.8-0.1-1.8,0.4
				c-0.5,0.2-1,0.6-1.6,1c-0.5,0.4-1.1,0.9-1.7,1.5c-1.3,1-2.3,2.5-3.4,3.8c-1,1.4-1.9,2.8-2.4,4l-0.1-0.2c-1.7,3.5-2.5,7-3.1,10.2
				c-0.5,3.2-0.7,6.2-0.8,9.2c-0.1,2.9,0,5.7,0,8.6s0,5.9-0.1,9.1c-2,7.8-2.4,26.6-4.1,39.2c0.4-1.9,1,0.4,1,2.6
				c-0.5,2.9,0.3,8.3-0.8,7.7l0.1-1.1c-1.3,2.1-1.4,8.3-1.8,13l1.5,0.9c-3.2,12.3-1.4,32.7-3.9,39.3c0.2,3-0.1,6.8,0.1,9.8l-0.8-0.2
				c-0.8,8.3-1.2,12.5-1.7,22.8l-0.5-2.1c-0.5,5.8,1.9,7.5,1.6,12.9l-1.4,1.5c-0.7,10.1-2.5,20.3-2,30.4c-0.2-0.2-0.5-0.5-0.5-2.1
				c-0.2,2.4-0.7,6.9-1.1,10.6c-0.4,3.7-0.7,6.5,0.3,5.8c-0.6,0-1,2.4-1.6,5.5c-0.6,3-1.6,6.6-2.6,9c-0.1-0.4-0.3-0.7-0.4-1.1
				c-0.5,2.1-0.8,3.3-1.3,4.5c-0.5,1.2-1.3,2.6-3.2,5.1c-1.1,1.1-1.3,0.5,0.1-0.8c-1.8,1.7-2.3,2.6-2.9,3.5c-0.6,0.9-1.3,2-3.7,4
				l1.2-2c-3.7,3.7-3.2,3.6-4.8,6.1c-1,1.3-2.8,3.1-4.4,4.7c-0.8,0.8-1.5,1.5-2.1,2.1c-0.6,0.5-1.1,0.9-1.4,1
				c-0.1,0.9-1.3,3.6-3.1,6.2c-0.5,0.2,0-0.9,0.2-1.4c-2.6,3.7-3.8,6.9-4.8,9.8c-1,2.8-1.7,5.4-3,8.2c-0.3,0-0.6,0.4-0.8,0.9
				c2-6.9,4.7-12.1,4.5-11.6c-0.8-0.4-3.2,5-2.3,0.3c-0.7,2.3-1.5,5.5-2.2,8.7c-0.7,3.2-1.4,6.6-2.1,9.3c-0.1,0.2-0.3,0.5-0.4,0.7
				l0-0.6c-0.4,1.3-0.5,2.4-0.6,3.5c-0.5,1.8-0.7,2.9-1,4.6c-0.4,0.3-0.7,1.9-0.9,3.9s-0.4,4.1-0.5,5.6c0.8-0.2,0.5,3.5,1.4,0.1
				c-0.1,0.5-0.1-0.5,0.1-2.4c0-0.4,0-0.9,0-1.2c0,0.1,0,0.1,0,0.2c0.2-1.9,0.4-4.3,0.8-7.1c0.1,2.3,0.1,4.7-0.6,7.8
				c0.4,1.5,0.8,3.1,1,4.1c-1.5,3.8-2.2,11.3-2.9,12.3c0.4,8.7,1,20.4,3,25.7c0.4,2.4-0.2,2.8-0.4,3.8c-0.3-1.4-0.4-3.1-0.7-3.8
				c0.8,4.9,1.3,14.4,2.5,15.5c0,6.2-1.3-3.4-0.4,5l-0.4-1.1c-0.5,16.7,4.9,26.7,3.7,45.2c0.1-1.3,0.1-1.9,0.3-2.2
				c0.2,21,2.8,43.2,1.2,63.9c-0.4,5.9,0.4,6.5,0.9,10.1l-0.9,1.3l0.9,6.2c0.3,4.4-0.3,8.1-0.9,12.2c-0.6,4-1.1,8.4-0.6,13.9
				l0.7-1.4c-0.2,4-0.2,12.5-0.9,11.8c0.1,0.4,0.6,1.3,0.2,2.9l-0.5,0.1c0.1,3.2,0.2,6.5,0.2,9.8c-0.8,7.5-1.8-1.3-2.6,9.7
				c-0.1,4.1,0.5,11.7,0.9,10.2c0.2-1.6,0.6-4.2,1.1-4.3l0,3.8c1.3,0.8,2.6,3.8,4.2-5.3l-0.4-6.5l0.8-2c-0.1,1.8-0.2,3.6-0.4,5.4
				c0.9-3,0.4-5,0.2-7.2c0.4-0.5,0.7-1.4,0.9-2.6l-0.9-6.4c0.6-0.7,0.9,2.9,1.5-1.3c-0.5-3-1.4,2.8-1.5-2.2c0.8-3,1.3-2.1,0.9-5.7
				c0.4-0.5,0.6,0.3,0.7,1.7c-0.2-3.2,0.3-8.5-0.4-10.2c0.9-3.2,0.2-10.8,1.5-10.5c-0.3-1-0.9-5.7-0.8-8.6c0.7,2.7,0.8,0,0.9-3.3
				c0.1-3.2,0.2-7,1-6.3c-0.7-2-0.8-5.6-0.9-9.6c-0.1-4,0-8.4-0.5-11.9c0.1,0.4,0.4,1.2,0.3,1.8c0.1-4,0.5-5.1,0.8-7.7
				c-1.2-0.5-1.6-6.7-2.3-10c1-4.9,1.4,2.9,2.5,1.4c-0.9,0.3-1.1-8.5-1.9-6.8c0.6-3.7,0.2-3.2,1.2-5.2c-1.5-0.6-0.3-3.5-1.4-6.5
				c0.5-5.4,1.3-1.4,0.6-7.3c0.3-2.8,1.1,2.4,1.1,2.4L14.7,483.2z M8.7,344L8.7,344c-0.2,1.2-0.4,2.1-0.5,2.8
				C8.3,346.2,8.4,345.4,8.7,344z M12.1,333c-0.6,1.3-1.1,2.9-1.7,4.7c-0.4,0.3-0.6-0.2-0.2-1.3C10.2,337,11.2,334.5,12.1,333z
				 M0.7,356c0.1-1.9,0.4-2.5,0.6-2.8c-0.1,0.9-0.2,2-0.3,3.3c0,0.1,0,0.2,0.1,0.2C0.9,356.6,0.8,356.4,0.7,356L0.7,356z"></path>
			<path class="st0" d="M1.5,359.5c0,0.3,0,0.4,0,0.8c0.1-0.4,0.2-0.7,0.3-1.1c-0.1-0.2-0.1-0.5-0.2-0.7
				C1.5,358.8,1.5,359.2,1.5,359.5L1.5,359.5z"></path>
			<path class="st0" d="M216.7,654.9l0.2,0c-0.2,0-0.4,0-0.6,0C216.6,654.9,216.6,654.9,216.7,654.9L216.7,654.9z"></path>
			<polygon class="st0" points="57.7,181.5 57.5,181.5 57.6,182.5 			"></polygon>
			<path class="st0" d="M151.8,659.3c-0.1-0.1-0.4-0.1-0.9-0.2C150.9,659.2,151.3,659.2,151.8,659.3z"></path>
			<path class="st0" d="M123.8,659.7l-3.9-0.3C121.5,659.5,122.8,659.6,123.8,659.7z"></path>
			<path class="st0" d="M102.3,658.7c-0.3,0.1-0.4,0.2-0.4,0.3c0,0,0,0,0,0L102.3,658.7L102.3,658.7z"></path>
			<path class="st0" d="M228.5,432.3c0-0.3,0-0.6-0.1-0.8C228.2,429.5,228.3,430.9,228.5,432.3z"></path>
			<path class="st0" d="M233.9,534.3c-0.2-1.1-0.3-2.2-0.4-3.3C233.4,532.8,233.4,534.2,233.9,534.3z"></path>
			<path class="st0" d="M215.1,321.7C215.1,321.7,215.1,321.7,215.1,321.7c-0.1-0.2-0.2-0.4-0.3-0.6L215.1,321.7z"></path>
			<path class="st0" d="M233.4,526.2c-0.1,1.8-0.1,3.3,0,4.7C233.5,529.5,233.6,527.7,233.4,526.2z"></path>
			<path class="st0" d="M15.3,636.9c-0.2-0.2-0.4-0.5-0.6-0.7c0,0-0.1,0-0.2,0C14.7,636.5,15,636.7,15.3,636.9z"></path>
			<path class="st0" d="M14.5,636.2l-0.8-0.8C14,635.8,14.3,636.1,14.5,636.2z"></path>
			<path class="st0" d="M12.2,633.8c0.5,0.6,1,1.2,1.5,1.7C13.2,634.8,12.7,634,12.2,633.8z"></path>
			<path class="st0" d="M38.5,650.6l0.4-0.2C38.7,650.4,38.6,650.4,38.5,650.6z"></path>
			<path class="st0" d="M46.8,652.6c-2-0.5-4.8-1.8-7.5-2.4l-0.3,0.2c0.7,0,2.1,0.6,3.7,1.2C44.1,652.1,45.8,652.7,46.8,652.6z"></path>
			<path class="st0" d="M82.1,661c-2.4-0.3-4.8-0.6-7.2-0.9c1.2,0.5,2.9,1.1-0.4,0.8C83.4,662.8,72.6,660,82.1,661z"></path>
			<path class="st0" d="M104.6,663c-3.9,0,0,0.5-0.2,0.7C106.9,663.4,107.5,663.4,104.6,663z"></path>
			<path class="st0" d="M234.9,609.8l0.7,0.5C235.8,607.3,235.4,610.2,234.9,609.8z"></path>
			<polygon class="st0" points="232.7,578.5 232.1,581.4 232.7,582.8 			"></polygon>
			<path class="st0" d="M238.6,560.2l0.1,1.3c-0.1-1.7-0.1-3.4-0.2-5C238.5,557.7,238.5,559,238.6,560.2L238.6,560.2z"></path>
			<path class="st0" d="M205.7,290.7l-0.4,1.3C206.5,293.6,207.6,293.4,205.7,290.7z"></path>
			<path class="st0" d="M184.8,177.4c0.4-1.3,0.6-4.6,0.1-6.6C184.8,173.4,184.6,176,184.8,177.4z"></path>
			<polygon class="st0" points="52.3,149.7 52.1,147.3 52.1,151.8 			"></polygon>
		</g>
	</g>
</g>
</svg>
