<?xml version="1.0" encoding="utf-8"?>
<!-- Generator: Adobe Illustrator 27.9.0, SVG Export Plug-In . SVG Version: 6.00 Build 0)  -->
<svg version="1.1" id="Calque_2_00000036938939745033669310000014627952228521794996_" xmlns="http://www.w3.org/2000/svg" xmlns:xlink="http://www.w3.org/1999/xlink" x="0px" y="0px" viewBox="0 0 263.5 684.3" style="enable-background: new 0 0 263.5 684.3" xml:space="preserve">
<style>.st0 {
  fill: #787c3e;
}

</style>
<g id="Calque_1-2">
	<g>
		
			<image style="enable-background: new; overflow: visible" width="1557" height="4039" xlink:href="/98C4153302CB85AF.b859e183.png" transform="matrix(0.1698 0 0 0.1698 0 7.356)">
		</image>
		<g>
			<path class="st0" d="M17,338.6c0.4,0.1,0.9,0.3,1.3,0.5l0,0.1c-0.1,0.1-0.1,0.2-0.2,0.4c-0.1,0.3-0.3,0.7-0.4,1.3
				c0.2,0.6,0.4,1.2,0.6,1.7c0.1-0.5,0.2-1.1,0.3-1.6c0-0.3,0.1-0.5,0.2-0.8l0.1-0.4l0-0.2l0-0.1v0l0,0l0,0v0l0,0l0,0l0,0
				C18.1,339,20.8,339.9,17,338.6L17,338.6z"></path>
			<path class="st0" d="M15.1,353.7c0.5,2.7,1.5,5.7,2.3,4c-1-2.6-0.6-3.2-1.7-6c-0.1-2.3,0.5-3.9,0.9-3.5c-0.2-0.8,0.6-3.4,0.2-4.6
				c-1.3,2.7-1.7,6.5-1,10.4C15.5,354.7,15.2,353.9,15.1,353.7z"></path>
			<path class="st0" d="M13.8,576.3l0.1-1.4C13.8,575.2,13.8,575.7,13.8,576.3z"></path>
			<path class="st0" d="M76,674c-1.1,0-1.5,0.1-1.6,0.2C75.5,674.1,76.3,674,76,674z"></path>
			<path class="st0" d="M99.6,674.6c-0.5,0-0.9,0-1.4,0C98.7,674.7,99.3,674.7,99.6,674.6z"></path>
			<path class="st0" d="M13.8,576.3l-0.4,3.7C13.7,580.2,13.7,578.1,13.8,576.3z"></path>
			<path class="st0" d="M18.4,384.4c-0.1-0.8-0.2-1.4-0.3-2c0,0.6,0.1,1.2,0.1,1.9C18.3,384.3,18.3,384.3,18.4,384.4L18.4,384.4z"></path>
			<path class="st0" d="M14,515.5v-1.1c-0.1-0.3-0.2-0.6-0.4-0.9L14,515.5z"></path>
			<path class="st0" d="M14.1,468.9c0,1,0.8,1.4,1.2,1.8c-0.4-0.6-0.5-1.4-0.6-2.3C14.6,468.4,14.4,468.5,14.1,468.9z"></path>
			<path class="st0" d="M15.2,394.9l-0.1-1.3C15.1,393.9,15.1,394.5,15.2,394.9z"></path>
			<path class="st0" d="M13.3,548.9c-0.1,0.1-0.2,0.2-0.3,0.4C13.1,549.3,13.2,549.1,13.3,548.9z"></path>
			<path class="st0" d="M47.6,293.4c0-0.1-0.1,0-0.1,0C47.4,293.7,47.4,293.8,47.6,293.4z"></path>
			<path class="st0" d="M16.8,338.6l0.2-0.7c-0.1-0.1-0.2-0.3-0.4-0.3L16.8,338.6z"></path>
			<path class="st0" d="M142.7,674.9c-0.1,0-0.1,0-0.2,0C141.4,675,142,675,142.7,674.9z"></path>
			<path class="st0" d="M241.9,360.6c-0.4,2.3-0.6,0.4-0.9-1.1c-0.3-1.6-0.6-2.8-0.9,0.6C240.4,359.4,241.5,366.4,241.9,360.6
				L241.9,360.6z"></path>
			<path class="st0" d="M18.3,385.6c0,0.6,0,1.3,0,1.9C18.3,386.6,18.3,386,18.3,385.6z"></path>
			<path class="st0" d="M240.1,360.1L240.1,360.1l-0.1,0.7C240.1,360.5,240.1,360.3,240.1,360.1L240.1,360.1z"></path>
			<path class="st0" d="M240.7,657.3c-0.2,0.2-0.5,0.5-0.8,0.9C240,658.2,240.2,658,240.7,657.3z"></path>
			<path class="st0" d="M168,672.8l1.8,0.1C169.1,672.8,168.5,672.8,168,672.8z"></path>
			<path class="st0" d="M245,618.3c0.1-1,0.3-1.3,0.2-2.7c-0.1,0.1-0.1,0.2-0.1,0.4C245.2,616.5,245.2,617.1,245,618.3L245,618.3z"></path>
			<path class="st0" d="M246.5,578.2c-0.1,0.2-0.1,0.5-0.2,0.7c0,0.4,0,0.9,0,1.3L246.5,578.2z"></path>
			<path class="st0" d="M65.9,172.4c-0.2,0.9-0.4,1.5-0.7,1.9c0.3-0.3,0.6,1,0.7,1.5S66.1,176,65.9,172.4z"></path>
			<path class="st0" d="M17.9,384.4c0.2,0.2,0.3,0.6,0.4,1.2c0-0.5,0-0.9-0.1-1.3C18.1,384.1,17.9,384.1,17.9,384.4L17.9,384.4z"></path>
			<path class="st0" d="M238.5,616.2l0.5-6.3C238.8,611.7,238.6,614,238.5,616.2z"></path>
			<path class="st0" d="M186.6,101.9l-0.3-1.4C186.4,101,186.4,101.5,186.6,101.9z"></path>
			<path class="st0" d="M239.6,591.2c0.3-1.1,0.5-2.3,0.7-3.5c-0.1-0.3-0.1-0.6-0.2-0.7L239.6,591.2z"></path>
			<path class="st0" d="M65.2,174.3L65.2,174.3C65.2,174.3,65.2,174.3,65.2,174.3z"></path>
			<path class="st0" d="M65.2,216.7c0.7-6.1-0.7-3-1.2-4.3c0.4-7.3,1.1-3.3,2-5.7c0.1-4.6-0.7-8.2-0.4-11.6c0.2-0.2,0.3-0.9,0.5-0.1
				c-0.1-1.2-0.2-2.7-0.2-4.4c0-1.7,0.1-3.5,0-5.3c0-3.7-0.2-7.5-0.8-10.3c0.1-0.4,0.2-0.6,0.2-0.8c-0.5,0.9-1.1,1.1-1.5,0.9
				c-0.2-2.7-1-5-0.3-6.1c0.1,1.7,0.4,1.8,0.6,2.6l-0.5-2.8c0.4-1.3,0.6-0.4,0.7,0.9c0.1,1.3,0.2,2.9,0.6,2.9
				c-0.6-5.6-2.2-12-2.5-16.3c0.9-1.1,1.6,9.9,1.8,4.1c0.2,2.2,0.2,4.5,0.3,6.7c1.1-5.2,0.2,4.1,1.6-0.8c-0.6-8.9-1.6-9.8-2.8-18.5
				c-0.9-1.8-0.7,0.8-1.6-1c-1.8-5.9-1.6-8.4-1.4-10.4c0.2-2.1,0.4-3.7-0.8-7.8c-0.5-1.1-1-1.8-1.5-3s-0.7-3-0.3-6.1
				c0.4,0.7,0.7,1.4,1.1,2.1c0-2,0-3.2-0.1-4.2c-0.1-0.9-0.2-1.5-0.3-2.1s-0.2-1.2-0.1-2.2c0.1-1,0.3-2.3,0.9-4.4
				c0.1,0.8-0.1,2.4-0.2,3.6c-0.1,1.2-0.2,2.1-0.1,1.5c0.8-2.6,0.9-3.6,0.7-4.4c-0.1-0.8-0.4-1.6,0.1-3.6l1.2-0.6
				c1.9-8.3,4.8-17.8,8.1-27c0.1,0.6-0.2,2.3,0.9,0.3c2-5.8,4.6-11.8,7.9-17.2c3.3-5.4,7.4-9.9,11.8-13.2l1.4-1.6l1.5-1.6
				c0.8-0.5,1.8-0.6,0.9,0.1c3.8-1.9-0.1-0.6,1.5-2c2.2-1.2,3.1-1.1,1.9-0.1c3.2-2.1,8.3-4.5,13.9-5.9c5.5-1.5,11.4-2,15.7-1.8
				l-1.6,0.4c3.3-0.1,5.1-0.6,6.9-1s3.6-0.8,6.6-0.2l-1.2,0.1c7.1,0.4,14.5,1.5,20.6,4.6c6.1,3,10.8,7.8,13.4,12.4
				c0.6,0.2,1.3,1.1,2.1,2.2c0.4,0.5,0.8,1.2,1.2,1.9s0.8,1.4,1.2,2.2c0.7,1.5,1.5,2.9,2.1,4.1c0.6,1.1,1.2,1.9,1.7,1.9
				c0.6,2,0.9,3.3,1.1,4.4c0.2,1.1,0.3,1.9,0.5,2.9c0.2,0.9,0.3,2,0.6,3.4c0.3,1.5,0.6,3.5,1.1,6.3c0.6,3,2,4.3,2.8,8l-0.9,0.2
				c0.6,1.7,1.1,3.3,1.7,5l-0.7,2.9c0.2,1.2,0.4,2.4,0.6,3.6c-0.1-1.4,0.1-3.1,0.4-2.9c1.1,5.6,0.8,13.8,0.3,14
				c0.6,4.4,1.2,8.9,1.7,13.4c-0.4-0.3-0.6-2.5-1-4.3c1.4,7.1-0.9,1.4,0.4,7.9c0.2-0.9,0.6,0.4,0.8,0.6c-0.4,3.3,0,10.8,0.5,16.3
				l-0.7-1c0.3,10,1.2,21.2,1.9,32.5c0-4.1,1.2-3.2,1.5,0.1l-0.9,1.4c0.8,2.1,0.1-3.5,1.2,0.9c0.2,4.2-0.9,2.9-1.4,0.5
				c0.2,1.7,0.5,3.4,0.7,5.1c-0.3,0.3-0.5-0.9-0.9-1.1c0.4,1,0.3,3.3,0.3,5.6c0,2.4,0.1,4.8,0.8,6.3l-0.3,0.3
				c0.6,5.7,1.2,9.7,1.7,13.4s0.9,7.2,1,11.6c0.9,0.1,0.8,3.6,1.3,6.3c-0.3,3.3-0.8,6.7-1.4,10.4c-0.6,3.7-1.1,7.6-1.2,11.9
				c0.2,3,0.4,3.4,0.6,3.5c0.2,0,0.4-0.4,0.7,1c-0.4,0.2-0.5,2.5-0.4,4.2c0.1,1.6,0.1,2.7-0.5,0.5c0.2,1.3,0.4,2.5,0.6,3.6
				c0.3,1.1,0.5,2.1,0.7,3c0.2,1,0.5,1.8,0.8,2.7c0.3,0.9,0.6,1.7,0.9,2.5c1.4,3.3,3,7,6.3,12.4c-0.4-1.3-0.9-2.8-0.4-2.2
				c1.1,2,2.2,4.7,1.7,4.6l-0.4-0.5c4,5.9,8.1,12.8,11.8,19.4c3.8,6.6,6.9,12.9,9.9,17.3l-0.3-0.5c1.9,3.2,3.5,6.5,5,9.9
				c1.5,4.9-1.5-2.7-0.8,1c2.5,5.4,3.5,10.1,4.2,14.5c0.6,4.4,0.9,8.5,1.5,13.4c-0.3,1-0.5,2.1-0.6,3.4c-0.1,0.6-0.2,1.3-0.2,2
				l0,0.3l0,0.5c0,0.3,0,0.5,0,0.8c0,0.4,0,0.8,0.1,1.2c0.1,1.6,0.2,3.2,0.4,5c0,0.3,0.1,0.7,0.1,1c0,0,0,0,0,0c0-0.1,0,0,0,0.1v0.3
				l0,0.7c0,0.9,0,1.9,0,2.8c0,7.5,0.5,15.3,0.2,20.7l0.5-0.7c0.7,2.7-0.1,3.4,0,5.4c0.4-0.3,0.2-3,0.6-1.3
				c1.3,11.7,2.6,23.6,3.7,35.6c1,12,1.6,24,1.3,35.6c-0.1,4.2,0.5,5.5,1,7c0.2,0.8,0.4,1.6,0.5,2.9c0,1.3-0.2,3.2-0.6,5.9l-0.8-3.2
				c0.1,8.9,0,17.9-0.2,26.9c-0.1,9-0.3,17.8,0.1,26.5c-0.2-1-0.5-1.1-0.5-2.7c-0.8,3.6-0.2,13.4,0.4,13.5c-0.1,2.7-0.5,0.6-0.9,2.3
				c-0.5,3.6,0.8,9.2,0.1,11.1c-0.1,0.3-0.2-1-0.3-1.7c0.3,2.4-0.3,11,0.6,8.8c-0.5,6.4,0.1,12.3-0.5,17.5c0.8,3.4-0.8,11,0.5,12.1
				c-1.3-0.5-1.6,11.2-1.2,15.3c-0.3-1.4-0.6,3.5-1.1,1.9c-0.3,4.6-0.4,8.8,0.4,8.1c-1.1,4.2-1.2,8.5-1.4,12.2
				c-0.2,3.8-0.5,7.1-1.9,9.2c-0.4,3.3-1,6.5-1.9,9.2c-0.1,0.3-0.2,0.7-0.4,0.9l-0.2,0.4l-0.2,0.3c-0.1,0.3-0.2,0.4-0.3,0.5
				l-0.8,0.8c-1,1.1-2,2-3,2.6c-0.3,0.2-0.5,0.3-0.7,0.4c-0.1,0-0.2,0.1-0.4,0.2l-0.5,0.2c-0.7,0.2-1.4,0.5-2.2,0.7
				c-1.5,0.5-3,0.9-4.5,1.3c-3,0.8-6,1.6-9,2.3c0.1-0.7,3.4-1.4,6.6-2.2c3.2-0.8,6.2-1.6,5.8-2.2c-5.5,1.7-10,3.2-14.3,4.2
				c-0.6,0.1-1.1,0.2-1.6,0.3c-0.2,0-0.4,0.1-0.6,0.1l-0.9,0.1c-1.2,0.1-2.4,0.2-3.6,0.2c-2.5,0.1-5.1,0.2-8,0.2
				c-3-0.1,1.7-0.6,2.7-0.9c-11.8,0.8-22.8,0.3-33.3,1.2c0-0.1,1.2-0.3,2.2-0.4c-2.1,0.1-4.8-0.1-4.6,0.5l2-0.2
				c3.3,0.8-8.2,2-8.5,2.5c3.5-1.8-10.4-0.2-4.8-2.6c-1.4,0.1-3.1,0.5-2.7,0.9c-2-0.1-2.7-0.3-0.6-0.8c-7.4,0.5-4.8,1.1-11.5,1.2
				c0-0.3,1.4-0.4,2.1-0.8c-3.4,0.6-6.8,1.3-12.5,1.1c0.3-0.2-0.3-0.4,1.4-0.4c-9.7,0.3-16.6,1.8-27.3,1.5c3.1-1.3-3.6-0.4-4.2-1.5
				l-5.7,0.4l2.3,0.5c-5,0.1-9.5,1-13.8,0.7l3.7-0.5c-3.2,0.1-6.3,0.3-9.4,0.3l5.3,0.4c-5.1,0.6,0.6,1.4-6.1,1.2
				c1.4-0.1-5,0-7.6-0.8h0c-2.5,0.2-5.1,0.4-8.7-0.3c-0.9-0.5,0.9-1.1,0.3-1.4c-1.2,0.3-4.1-0.1-7-0.8c-2.9-0.7-5.7-1.6-7.3-1.8
				c1,0.2,1.3-0.3,1-0.6l-2.1-0.1c-1-0.6-1.5-0.9-1.7-1.2c-0.2-0.3-0.1-0.4,0.1-0.5c-2.8-1.7-2.6-1.2-2.4-0.7
				c0.1,0.2,0.2,0.4-0.2,0.3c-0.4-0.1-1.2-0.7-2.7-2c0.5,0.3,0.4,0,1.5,0.7c-3.3-2.3-6.2-5-8.8-7.8c-2.6-2.8-4.8-6-6.3-9.4
				c0-0.6,0.2-0.6,0.5-0.2c0.1,0.2,0.3,0.5,0.5,0.8c0.2,0.3,0.4,0.6,0.6,1c0.8,1.3,1.6,2.6,1.4,1.3c-2.9-4.4-5.3-9.4-6.7-14.7
				c-1.4-5.3-1.8-10.9-0.8-15.9l-0.4,1.9c-0.3-0.4-0.4-1.1-0.3-2c0.1-0.4,0.2-0.9,0.3-1.5c0.1-0.6,0.2-1.2,0.4-1.8
				c0.3-1.3,0.5-2.6,0.7-4c0.2-1.4,0.2-2.8,0.1-4.2c0.1,1.3,0.8,1.8,0.7,1.4c0.5-7.4,0.1-15.1-0.1-26.2l0.4,1.4
				c0.5-4.3,0.5-11.4,0.8-16.1c-0.4-1.4-0.3-4.1-0.9-2.5c2.6-14.4-0.8-27.5,1.3-40.3c0,1.5,0.3,3.7,0.3,2.4L18,514.9
				c-0.7,0.9-0.4,1.4-1,3.7c-0.4-1.4-0.7-4.5-0.7-7.2c0.4,4.9,1.1,0,1.5-2.1c-0.2,0.4-0.4-0.4-0.7-0.2c1.3-5.7-1.4-1-0.5-8.7
				l0.4,0.4c-0.1-2.9-0.6-5.6-0.5-8.7c0.8-1.3,0.4,3.1,1,3.3c0-4.4-1.5-8.7-0.6-12.7c0.2,1.9,0.2,4.6,0.4,6.4c1-4.3,0.7-4.8,0.9-8.1
				l0,0.3l0.5-7.5l-0.3,1.9c-2.1-5.5-0.4-11.2-1.7-18.7c1.3,7.2,0.8,1.2,1.7,1.8c0.3-1.9,0.5-4.8,0.8-4c-0.7-3.5,0.6-5.9-0.5-10.8
				c0.3-0.2,0-3.8,0.8-3c-0.2-4.6-0.5,1.1-0.9,0.7c-1-7,1.1-16.6-0.3-26.7c-0.7-8.7-1.7-10.3-2.3-18.4c0.4-2.7,1.1,2.2,1.1,2.2
				c0.4-4.4,0.2-7.7-0.2-11.9c0.3,0.8,0.5,0,0.8-1.3c-0.1-3.3-1.1-2.2-0.8-6.6c0.4,0.8,0.9,1.7,1.2,3.3c-0.3-3.9-1-7.8-1.4-11.9
				c0.5-1.1,0.9,2.4,1.2,3.9c-0.4-4.6-0.8-11.9-1.7-13.2l-0.2,2.9c-0.1-1.7,0.7-0.9,0.9,0.3c0.8,3.9-0.1,5.7-0.4,5.9l-0.3-2.9
				c-1.6,3,0.7,11.6,0.7,17.5l-1.3-2.4l1.2,6c-0.3,1.3-1,2.2-1.2-0.7c-0.5,4.2,0.5,3.7-0.1,7.3c-0.1,0.4-0.2,0.2-0.2-0.1l0.4,4.1
				c-0.3-0.8-0.9,0.7-0.7-1.8c-0.6,7.3,1.1,11.8,0.2,14.6l-0.1-0.6c0.6,10.2,0.9,1,2.1,8.6l-2.2,5.1l0.9,1c0,1-0.1,3.1-0.4,2.7
				c0.6,3.9,0.4-0.7,1,1.6c-0.8,5.1,0.5,13.9-1,15.1c0.7,1.8,0.5-4.8,1,0.6c-1.6,1.5,0.3,6.2-0.4,10.9c-0.8-1.4-0.4-5.8-1.1-1.2
				c1.4,2.8-0.3,9-0.1,12.9c1.1,0.2,0.4,8.5,0.8,15c-0.4-0.4-0.7,12.3-1.1,18.4l-0.2-0.2c1.1,1.2,0.8,7.5,1,12
				c-0.7-0.2-0.9-1-1.2-3.5l0,4.3c0.3,1,0.5,2.4,0.6,5.1l-0.8-1.1c0,5.7,0.8,11.5,0.2,18.9c0.8,0.4,2.2-5.8,2.6,2
				c-0.4,0.3-1.1,0.6-1.3-1.5c0,0.7,0.3,2.4,0.1,3.7l-0.6-3.1c-0.4,3.3,0.6,1.8,0.4,4.4c-0.6-0.1-0.5,2-0.9,1.6
				c-0.1-0.7,0.3-2.3,0.1-3.4c-0.2,3-0.6,6.7-1,7.8c0.3-0.3,0.8,0,0.8,2.2c-0.1,5.7-0.7,1.9-1.1,5.3c0.4,1.4-0.1,5,0.8,5.1
				c0,1.7-0.5,2-0.7,2.6c0.3,3-0.2,13.8,0.8,10.5l0.1-0.8c0,0.1,0,0.3,0,0.5v0v0c0.6,9.7-1,20.1-1,29.7l-0.3,0c0,1.4,0,3,0,4.5
				c0,1.5-0.1,3.1-0.1,4.5c0,0.7-0.1,1.4-0.1,2.1c-0.1,0.7-0.1,1.4-0.2,2.1c-0.1,0.7-0.1,1.3-0.1,1.9c0,0.6,0,1.2,0.1,1.7
				c-0.1,0.9-0.2,1.9-0.5,2.6c-0.2,0.7-0.4,1.1-0.6,0.8c0.2,2.3,0.3,3.5,0.6,5c0.1,0.7,0.2,1.5,0.3,2.6c0.2,1,0.4,2.3,0.6,3.9
				c-1.4-4.4-0.2,1.7-1.3-4.5c0.4,2.9,0.6,4.8,1.1,6.6c0.4,1.8,1.2,3.7,2.8,6.4c-1.6-1.7,1,4.5,2.8,6.8c-0.5-1.3-1.1-2.6-1.6-3.9
				c0.8,1.4,1.6,2.6,2.3,3.9c0.8,1.2,1.6,2.3,2.4,3.5l-1.7-0.7c3.1,5.4,7.7,9.1,12.2,11.7c0.6,0.3,1.1,0.7,1.7,1
				c0.6,0.3,1.1,0.6,1.7,0.8c0.6,0.3,1.1,0.6,1.7,0.9c0.6,0.2,1.1,0.5,1.7,0.8c2.2,1.1,4.3,2,6.4,3.2c1.7,0.1,0.1-0.4-1.5-1.1
				c-1.6-0.7-3.1-1.5-1.6-1.3c2.6,1.1,5.2,2.2,7.4,3.1c2.2,0.9,4.1,1.5,4.9,1.7c3.8,0.8,5.6,0.5,7.4,0.3c1.8-0.3,3.7-0.6,7.6-0.3
				c-1-0.4-1.9-1.3,3.9-1.6c5.4,0.1,6.6,1.4,3.2,1.8c-1.3,0-1.9-0.1-1.9-0.2c-1.7,0.2-4,0.3-1.9,0.7l0.7-0.4
				c2.7,0.4,10.1,0.2,8.3,0.8c4.1-0.4,1.7-0.6-1.3-0.8c6.9,0.4,10.8-0.2,17.8,0c-1.1-0.2-2.2-0.6-1.1-0.6c10.4,0.2,4.6-0.8,11.6-1
				c4,0.5-1.4,1.3,5.7,0.7c4.3,0.3,0.9,0.9-0.8,1.2c6.4-0.8,12.1,0.2,15.8,0.3l-3.4,0.3c2-0.2,3.7-0.2,5.4-0.3l-2-0.7
				c2,0.1,3.7,0.1,3.7,0.4c2.1-0.5-1.6-1.2,2.5-1.9c2.7,0.3,8.1-0.5,9,0.4c-8.4-0.2,0.9,0.9-6.1,1.2c1.4-0.1,3-0.2,5-0.1
				c0.3,0.1-0.3,0.2-0.8,0.3c8,0.7,3.7-1.1,12-1.3c-1,0.5,1.9,1,3.3,0.8c-3.4,0-1.6-0.9,1.4-1.3c5.3,0.3,5.8-0.4,8.6-0.4l-3.2-0.1
				c1.1-0.5,3.7-0.5,7.4-0.8c0.3,0.4-3.4,0.3-2,0.5c4.1-1,9.3,0.8,15.1,0.1c2.7,0.3,0.3,1,2.6,1.2c6.4-0.8,7,0.6,13.8-0.1
				c-2-0.7-2.3-0.5,2.4-1.3L193,673l7.1-1.2c-3.4,0-7.1,0.6-9.1,0.5c3.4-0.7,3.1-0.5,1.4-1c4.6,1,9.1-0.8,14.4-0.2l-0.1,1.8
				c0.2,0,0.5,0,0.8,0c0.3,0,0.7,0,1,0c0.6,0,1.1-0.1,1.6-0.2c1-0.1,2-0.3,2.9-0.5c1.9-0.4,3.7-0.9,5.6-1.5c1.9-0.6,3.8-1.2,5.9-1.8
				c1.1-0.3,2.2-0.7,3.3-1c0.6-0.2,1.2-0.4,1.9-0.6c0.3-0.1,0.8-0.3,1.1-0.4c0.4-0.2,0.7-0.3,1.1-0.5c-0.6,0.3-1.2,0.5-2,0.8
				c-0.6,0.2-1.2,0.3-1.8,0.4c0.3-0.3,0.8-0.5,1.6-0.9c0.9-0.4,1.7-0.8,2.6-1.4c0.9-0.6,1.8-1.3,2.5-2c0.4-0.3,0.8-0.7,1.1-1.1
				c0.2-0.2,0.3-0.3,0.5-0.5c0.2-0.2,0.4-0.5,0.5-0.7c0.1,0.3,0.7,0,1.2-0.6c0.6-0.6,1.2-1.5,1.7-2.2c-0.2,0,0.6-2,1.1-4.1
				c0.5-2.1,0.8-4.3,0.3-4.9c0.6-1.5,1.1-3,1.6-4.5c0.8-4.2,0.6-6.7,0.5-9.1c-0.2-2.4-0.4-4.8,0-8.8c0.4,2.5,1.2-1.2,1.1,4.3
				c0.3-2.7,0.6-5.1,0.1-5.2c0.5-1.5-0.2-7.5,0.4-10c-0.2-1.2-0.8-1.6-0.6-4.6c0.1-0.3,0.3,0,0.3,0c-0.3,0-0.2-4.8-0.9-2.1
				c2.3-8.2,0.7-23.2,2.5-30.3c-0.1-5.9-0.1-13-0.1-18.3c0.2,0.3,0.3,0,0.2,1c0.6-7.3-1.6-4.5-0.9-12.9c1-4.3,0.5,4.5,0.9,1.8
				c2-1.1-0.2-10.1,1-15.7l0.1,1.4c0.7-4.3-0.6-10.5-0.4-17.5c0,0,0.2,0.3,0.3,0c-0.9-4.8-1.2-13.9-1.3-20.7
				c0.7,2.1,0.3,3.1,1.1,1.8c0-3-1.3,0.9-1.3-5.2c0.5-2,1-6.3,1.9-6.8l-0.2,5.7c1.2-2.9,0.2-7.3,0.6-10.3l0.4,0.4
				c0.1-4.5-0.1-6.7-0.4-9c-0.3-2.3-0.5-4.7-0.6-9.5l-0.3,1c-1.3-5.1,0.5-4.4-0.7-9.5c0.4-0.5,0.7-1.1,1.1-1.6
				c-0.5-3.4-2.1-11.8-3.1-17.8c1.3,3.3,2.5,10.4,3.3,14.8c-0.2-3.4-1.2-11.4-1.9-13.1c0.3,1.3,0.8,3,0.7,4.4c-1.4-4-2.4-9.4-3.2-16
				c2.4,0.9-1.5-17.4-0.1-22.4c-1-5.8-1.2-11.6-1.3-17.7c0.1-3,0.1-6.1,0.3-9.2c0-0.8,0.1-1.6,0.1-2.4c0-0.4,0-0.8,0.1-1.2v-0.4
				c0-0.2,0-0.4,0-0.6l-0.1-0.8c-0.1-1.7-0.3-3.3-0.5-5.1c-0.7,2.5-0.8,1.5-0.9,0c0-0.4-0.1-0.8-0.1-1.2c0-0.2-0.1-0.4-0.1-0.6
				c0-0.2-0.1-0.2-0.1-0.3c0,0,0,0,0,0l0-0.1c0-0.1,0-0.1-0.1-0.2c0-0.1-0.1-0.2-0.2-0.3c-0.1-0.2-0.3-0.2-0.5-0.1
				c0-3.3-0.1-4.5,0.1-4.8c0.3-3.3,0.4-6.6,0.4-10c0.2-2.4,0.8,3.1,1.1,2.8c-0.3-3.6-0.3-4.4-0.1-4.9c0.2-0.5,0.5-0.7,0.3-3.1
				c-0.5,1.1-1.3-2.4-2-6.5c0.2,2,0.3,4,0.4,5.9c-0.7-2.5-1.1-4.2-1.4-5.6c-0.2-1.4-0.4-2.5-0.5-3.7c-0.2-2.2-0.5-4.5-2.7-9.2
				c0.6,1,1.1,1.9,1.7,2.9c-1-2.5-2.8-7-5.1-11.4c-2.3-4.3-5-8.3-7-10.1c-0.3-0.9-0.5-2.2,0.8-0.3c-3.2-5.4-7.3-10.7-11.1-15.9
				c-3.7-5.1-7-10.2-8.6-14.5l0.8,0.6c-0.6-0.9-1.2-1.7-1.7-2.6c-0.5-0.9-1.1-1.8-1.4-3.2c0.2,0.1,0.7,0.6,0.4-0.3
				c-0.3-0.5-1-1.8-1.7-3.2c-0.6-1.5-1.3-3.2-1.5-4.7c0.3,0.7,0.7,1.5,1.1,2.2c-0.6-2.7-1.1-5.1-1.5-7.3c-0.5-2.2-0.7-4.2-0.9-6.3
				c-0.4-4.1-0.6-8.1-0.3-13.1c0.6,0.1,1.3-2.2,1.9-5.1c0.6-2.9,0.9-6.6,1-9l0.2,0.2c0.1-7.2-0.8-13.2-1.8-18.9
				c-0.5-2.8-1-5.6-1.5-8.5c-0.5-2.9-1-5.8-1.4-8.9c0.4-4,0-10.6-0.4-17.9c-0.4-7.3-0.7-15.2-0.6-21.6c-0.1,2-1-0.3-1.3-2.5
				c0.1-3-1.3-8.2-0.1-7.8l0,1.1c1.1-2.3,0.5-8.5,0.2-13.3l-1.6-0.7c0.8-6.4,0-14.6-1-22.1c-1-7.5-2.2-14.2-1.8-17.9
				c-0.9-3-1.6-6.8-2.8-9.7l0.9,0c-0.4-2.1-0.9-4-1.4-5.7c-0.5-1.7-1-3.4-1.6-5c-0.6-1.7-1.2-3.4-2.1-5.3c-0.8-1.9-1.9-4-3.3-6.4
				c0.6,0.5,1.1,1.1,1.6,1.7c-0.7-1.4-1.5-2.4-2.2-3.3c-0.4-0.4-0.8-0.8-1.1-1.2c-0.4-0.3-0.8-0.7-1.2-1c-0.8-0.6-1.6-1.2-2.4-1.9
				c-0.9-0.7-1.7-1.5-2.6-2.5c-0.1-0.7-0.1-1.4-0.2-2.1c-3.7-4-8.1-7.6-13.1-10.2c-5-2.5-10.5-3.8-15.9-3.9c0.2-0.2,0.6-0.5,2.3-0.3
				c-1.3-0.2-3.1-0.5-5.1-0.7c-2-0.2-4.3-0.4-6.2-0.4c-4,0-7.1,0.4-6.1,1.2c-0.1-0.6-2.8-0.5-6.2,0s-7.4,1.4-10.1,2.2l0.7-1
				c-2.3,1-3.4,1.6-4.8,2.1c-1.4,0.6-3,1.1-6.1,2.3c-1.5,0.4-1.5-0.2,0.5-0.7c-1.3,0.3-2.2,0.6-2.8,0.9c-0.7,0.3-1.2,0.6-1.7,0.9
				c-0.5,0.3-1,0.7-1.8,1.1c-0.4,0.2-0.8,0.4-1.4,0.7c-0.5,0.3-1.2,0.6-1.9,0.9c0.6-0.5,1.2-1.1,1.9-1.6c-1.2,0.6-2.1,1.1-2.8,1.5
				c-0.7,0.4-1.1,0.8-1.5,1.1c-0.8,0.6-1.2,1.2-2.2,2.3c-1.3,1.1-3.3,2.7-5.2,4.1c-0.9,0.7-1.7,1.4-2.4,1.9
				c-0.7,0.5-1.2,0.8-1.5,0.9c-0.2,0.9-1.6,3.5-3.6,6c-0.5,0.2,0-0.9,0.3-1.4c-2.9,3.6-4.3,6.7-5.5,9.5c-1.2,2.8-2.1,5.2-3.7,7.9
				c-0.3,0-0.6,0.3-0.9,0.8c2.7-6.6,5.7-11.7,5.4-11.2c-0.7-0.4-3.5,4.8-2.3,0.1c-0.9,2.2-1.9,5.3-2.9,8.5c-1,3.1-2,6.3-3.2,8.9
				c-0.2,0.2-0.3,0.4-0.5,0.6l0.1-0.6c-0.5,1.2-0.9,2.3-1.1,3.3c-0.7,1.6-1.2,2.6-1.8,4.2c-0.8,0.4-2.6,6-3.5,8.8
				c0.9,0-0.4,3.6,1.3,0.4c-0.2,0.4,0.1-0.6,0.7-2.4c0.1-0.4,0.3-0.9,0.3-1.2c0,0.1,0,0.1,0,0.2c0.6-1.8,1.4-4.1,2.4-6.7
				c-0.4,2.2-0.9,4.6-2.3,7.4c0,1.6,0,3.3,0,4.2c-1.2,1.7-2.4,4.3-3.4,6.6c-1,2.3-1.8,4.4-2.3,4.9c-0.7,4.4-1.2,9.8-0.9,14.7
				c0.3,4.9,1.3,9.2,2.6,11.8c0.6,2.4,0.1,2.9,0,3.9c-0.4-1.4-0.7-3.1-1.1-3.8c1.2,4.9,3.1,14.3,4.3,15.2c0.3,3.1-0.1,2.3-0.4,1.7
				c-0.3-0.5-0.4-0.8,0.4,3.3l-0.5-1.1c0.5,8.2,1.8,14.8,2.7,21.7c0.9,6.9,1.5,14.2-0.2,23.3c0.2-1.3,0.3-1.9,0.5-2.1
				c-1,10.4-2.1,21.2-3.6,31.9c-0.8,5.4-1.6,10.7-2.6,15.9c-1,5.3-2.2,10.4-3.7,15.4c-0.8,2.9-1.1,4.5-1.2,5.8
				c-0.1,1.4,0,2.5-0.2,4.3l-1.2,1c-0.1,2.1-0.4,4.1-0.6,6.2c-0.8,4.3-2.5,7.8-4.3,11.4c-0.5,0.9-0.9,1.8-1.4,2.8
				c-0.5,1-1,1.9-1.4,3c-0.9,2.1-1.8,4.3-2.7,7c0.4-0.3,0.8-0.7,1.1-1c-0.4,0.9-1,2-1.6,3.2s-1.2,2.5-1.8,3.6
				c-1.2,2.2-2.3,3.9-2.4,3.4c-0.1,0.4-0.2,1.4-1.2,2.5l-0.5-0.2c-0.7,1.5-1.6,2.8-2.4,4.2c-0.8,1.4-1.7,2.7-2.6,4.1
				c-1.2,1.4-2,2-2.4,2.2c-0.4,0.2-0.6,0-0.8,0c-0.2-0.1-0.5-0.1-1.2,0.5c-0.7,0.6-1.8,1.8-3.3,4.3c-1.1,1.9-2.2,4.8-2.8,7.1
				c-0.6,2.3-0.7,3.9-0.3,3.2c0.6-1.6,1.9-3.9,2.4-3.9c-0.5,1.2-0.9,2.4-1.2,3.6c0.5,0.6,0.9,1.6,1.6,1.5c0.4-0.1,0.8-0.4,1.4-1.2
				c0.6-0.8,1.4-2,2.6-3.8c0.6-1.9,1.4-3.8,2.3-5.6c0.6-0.4,1.1-0.8,1.7-1.2c-1,1.4-1.9,2.8-2.8,4.2c2-2.1,2.6-3.9,3.6-5.7
				c0.3-0.1,0.6-0.2,1-0.5c0.2-0.1,0.4-0.2,0.6-0.4c0.2-0.2,0.4-0.4,0.7-0.6c1-2,2.1-4,3-6c0.9-0.3-0.8,3,2-0.4
				c1.3-2.9-2.7,1.7-0.1-2.7c1.1-1.2,1.7-1.5,2.1-1.9c0.5-0.5,0.9-1,1.5-2.8c0.6-0.3,0.4,0.5-0.2,1.9c0.7-1.5,1.7-3.5,2.6-5.3
				c0.8-1.8,1.5-3.5,1.6-4.4c1-1.3,2.2-3.9,3.1-6c0.9-2.1,1.7-3.9,2.2-3.5c0.1-1.1,1.1-5.8,1.9-8.7c-0.1,2.9,0.8,0.2,1.8-3
				c1-3.2,2-6.9,2.7-5.9c-0.1-2.1,0.6-5.7,1.5-9.7c0.9-4,1.7-8.3,2-11.9c0,0.4,0.1,1.2-0.1,1.8c0.9-3.9,1.5-5,2.3-7.5
				c-1.1-0.7-0.2-6.9-0.4-10.3c2-4.6,0.9,3.2,2.2,1.8c-0.5,0-0.4-2.1-0.2-4.1c0.1-2,0.2-3.8-0.3-3c1.3-3.6,0.8-3.1,2.1-4.9
				c-1.4-0.9,0.3-3.5-0.2-6.7c1.4-5.3,1.6-1.2,1.8-7.2C65.2,211.4,65.1,216.8,65.2,216.7L65.2,216.7z M68.8,78L68.8,78
				c-0.4,1.1-0.8,2.1-1,2.7C68,80.2,68.3,79.4,68.8,78L68.8,78z M73.4,67.3c-0.7,1.3-1.4,2.9-2.1,4.6c-0.4,0.3-0.5-0.3-0.1-1.3
				C71.2,71.2,72.4,68.7,73.4,67.3z M58.7,88.4c0.5-1.8,0.9-2.4,1.2-2.6c-0.3,0.8-0.6,1.8-1,3.2c0,0.1,0,0.2,0,0.2
				C58.7,89,58.7,88.8,58.7,88.4z"></path>
			<path class="st0" d="M58.6,92c-0.1,0.3-0.1,0.4-0.2,0.8c0.2-0.3,0.4-0.7,0.5-1c0-0.2,0-0.5,0-0.7C58.8,91.4,58.7,91.7,58.6,92z"></path>
			<path class="st0" d="M13.9,574.6l0,0.2c0-0.2,0.1-0.4,0.1-0.5C14,574.5,14,574.5,13.9,574.6L13.9,574.6z"></path>
			<polygon class="st0" points="184.5,89 184.7,88.9 184.4,87.9 			"></polygon>
			<path class="st0" d="M17.9,509.2c0.1-0.1,0.1-0.4,0.2-0.9C18,508.4,18,508.8,17.9,509.2z"></path>
			<path class="st0" d="M18.3,481l0.3-4C18.4,478.7,18.3,479.9,18.3,481z"></path>
			<path class="st0" d="M18.8,459.2c-0.1-0.3-0.3-0.4-0.4-0.4c0,0,0,0,0,0L18.8,459.2L18.8,459.2z"></path>
			<path class="st0" d="M166.4,667.2c0.3,0,0.6,0,0.8,0C169.2,666.9,167.9,667,166.4,667.2z"></path>
			<path class="st0" d="M63.7,670.6c1.1-0.1,2.1-0.2,3.3-0.3C65.2,670.2,63.8,670.1,63.7,670.6z"></path>
			<path class="st0" d="M238.4,616.9C238.4,616.9,238.4,616.9,238.4,616.9c0-0.2,0-0.5,0-0.7L238.4,616.9L238.4,616.9z"></path>
			<path class="st0" d="M71.8,670.4c-1.8-0.2-3.3-0.2-4.7-0.1C68.5,670.4,70.2,670.5,71.8,670.4z"></path>
			<path class="st0" d="M17.9,365v-1c0,0-0.1,0-0.1-0.1L17.9,365L17.9,365z"></path>
			<path class="st0" d="M17.7,363.8l-0.1-1.2C17.6,363.2,17.6,363.6,17.7,363.8z"></path>
			<path class="st0" d="M17.3,360.2l0.3,2.4C17.6,361.8,17.5,360.7,17.3,360.2z"></path>
			<path class="st0" d="M18.2,393.8l0.3,0.3C18.5,393.9,18.4,393.8,18.2,393.8z"></path>
			<path class="st0" d="M18.5,402.5c0-2.1,0.6-5.2,0.3-8.2l-0.2-0.3C19,395.4,17.9,400.5,18.5,402.5L18.5,402.5z"></path>
			<path class="st0" d="M15,439l0.2-7.3c-0.3,1.3-0.7,3-0.8-0.4C13.5,440.6,15.1,429.4,15,439z"></path>
			<path class="st0" d="M14.6,461.7c-0.1-3.9-0.5,0-0.7-0.2C14.2,464.1,14.3,464.7,14.6,461.7z"></path>
			<path class="st0" d="M11,625.9l-0.8-0.4C10.5,628.7,10.6,625.5,11,625.9z"></path>
			<path class="st0" d="M25.7,653.2c-0.5-0.8-1-1.6-1.4-2.5L23,650l1.3,1.7C24.7,652.2,25.3,652.7,25.7,653.2z"></path>
			<path class="st0" d="M36.9,669.2c-0.5-0.2-0.9-0.4-1.3-0.6c0.8,0.5,1.7,0.8,2.5,1.1l2.5,1L36.9,669.2L36.9,669.2z"></path>
			<path class="st0" d="M247.1,585.4l-1,0.9C246.3,588.3,247.3,588.8,247.1,585.4z"></path>
			<path class="st0" d="M248.2,466.2c0.2-0.7,0.4-1.8,0.4-3.1c0-1.3-0.1-2.6-0.4-3.7C248.3,462.2,248.1,464.9,248.2,466.2
				L248.2,466.2z"></path>
			<polygon class="st0" points="195.3,119.5 195.8,121.9 195.2,117.4 			"></polygon>
		</g>
	</g>
</g>
</svg>
