<?xml version="1.0" encoding="utf-8"?>
<!-- Generator: Adobe Illustrator 27.9.0, SVG Export Plug-In . SVG Version: 6.00 Build 0)  -->
<svg version="1.1" id="Calque_2_00000047042017278657593510000010809872217184108175_" xmlns="http://www.w3.org/2000/svg" xmlns:xlink="http://www.w3.org/1999/xlink" x="0px" y="0px" viewBox="0 0 252.8 656.4" style="enable-background: new 0 0 252.8 656.4" xml:space="preserve">
<style>.st0 {
  fill: #4c91b5;
}

</style>
<g id="Calque_1-2">
	<g>
		<g>
			<path class="st0" d="M177.2,45.8c0.8,0.4,1.1-0.4-0.4-2.1l-2-0.5L177.2,45.8L177.2,45.8z"></path>
			<path class="st0" d="M168.7,34c-2.6-0.5-5.8-0.7-4.8,1c2.9-0.1,3.2,0.7,6.4,0.5c0.6,0.2,0.9,0.4,1.2,0.6c0.1,0,0.2,0.1,0.2,0.1
				c0.1,0,0.1,0.2,0.1,0.2c0.1,0.2,0.1,0.3,0.2,0.4c0.1,0.3,0.1,0.5,0.1,0.6c0,0.2-0.1,0.3-0.2,0.3c0.7,0.4,1.9,2.9,3.3,3.4
				c-0.5-1.4-1.3-2.9-2.4-4.3c-0.2-0.3-0.5-0.6-0.8-1c-0.4-0.2-0.8-0.3-1.2-0.5c-0.8-0.3-1.8-0.6-2.8-0.8
				C167.6,34.1,168.4,34.2,168.7,34L168.7,34z"></path>
			<path class="st0" d="M64.6,158.6l0.2-1.4C64.7,157.5,64.6,158,64.6,158.6z"></path>
			<path class="st0" d="M53.4,290.7c0.5-0.8,0.6-1.2,0.6-1.3C53.5,290.2,53.2,290.8,53.4,290.7z"></path>
			<path class="st0" d="M35.5,304c0.4-0.3,0.8-0.5,1.2-0.8C36.1,303.5,35.7,303.7,35.5,304z"></path>
			<path class="st0" d="M64.6,158.6l-0.5,3.6C64.5,162.4,64.5,160.3,64.6,158.6z"></path>
			<path class="st0" d="M139.9,26.4c0.7,0.1,1.3,0.2,1.9,0.2c-0.6-0.1-1.2-0.2-1.8-0.3C140,26.3,139.9,26.4,139.9,26.4z"></path>
			<path class="st0" d="M70.2,99.1l0.2-1.1c-0.1-0.3-0.2-0.7-0.3-1L70.2,99.1z"></path>
			<path class="st0" d="M69.8,54.5c0,1.1,1.1,1.4,1.7,1.8C71,55.8,70.7,55,70.5,54C70.3,54,70.1,54.2,69.8,54.5L69.8,54.5z"></path>
			<path class="st0" d="M130.8,20.2c0.4,0,0.9,0,1.3,0C131.8,20.2,131.2,20.2,130.8,20.2z"></path>
			<path class="st0" d="M63.9,131.4c-0.2,0.1-0.3,0.2-0.4,0.4C63.6,131.8,63.7,131.6,63.9,131.4z"></path>
			<path class="st0" d="M183.4,97.3c0.1,0,0.1,0,0.2,0C183.5,97,183.4,97,183.4,97.3z"></path>
			<path class="st0" d="M179.5,44.2l0.2,0.7c0.2,0,0.4,0.1,0.6,0.1L179.5,44.2L179.5,44.2z"></path>
			<path class="st0" d="M16.1,343.6c0-0.1,0-0.1,0-0.2C16.1,342.3,16.1,343,16.1,343.6z"></path>
			<path class="st0" d="M120.2,649.6c-4.3-1.3,7.2-0.8,0.7-2.3C121.4,647.8,114.7,648.6,120.2,649.6z"></path>
			<path class="st0" d="M138.8,26c-0.6-0.1-1.2-0.3-1.8-0.4C137.8,25.8,138.4,25.9,138.8,26z"></path>
			<path class="st0" d="M120.9,647.3L120.9,647.3l-0.7-0.2C120.5,647.3,120.6,647.3,120.9,647.3z"></path>
			<path class="st0" d="M13.5,441c0.2-0.2,0.4-0.6,0.5-1C13.9,440.1,13.8,440.3,13.5,441z"></path>
			<path class="st0" d="M17.3,368.7l-0.2,1.8C17.2,369.7,17.2,369.2,17.3,368.7z"></path>
			<path class="st0" d="M11.4,478.3c-0.2,1-0.4,1.3-0.4,2.7c0.1-0.1,0.1-0.2,0.2-0.4C11.1,480,11.1,479.4,11.4,478.3z"></path>
			<path class="st0" d="M10.7,517.9c0.1-0.2,0.1-0.5,0.2-0.7c0-0.4-0.1-0.8-0.1-1.2C10.7,515.9,10.7,517.9,10.7,517.9z"></path>
			<path class="st0" d="M191.7,215.3c0.2-0.9,0.5-1.4,0.8-1.9C191.8,214.1,191.1,208.3,191.7,215.3z"></path>
			<path class="st0" d="M140,25.8c-0.3,0.2-0.6,0.3-1.2,0.2c0.4,0.1,0.8,0.2,1.2,0.3C140.2,26.1,140.2,26,140,25.8L140,25.8z"></path>
			<path class="st0" d="M19.7,480.9c-0.3,2-0.6,3.9-0.7,5.9C19.2,485.1,19.4,483,19.7,480.9z"></path>
			<path class="st0" d="M232.4,486.3l-0.2-1.4C232.2,485.4,232.2,485.9,232.4,486.3z"></path>
			<path class="st0" d="M18.9,504.8c-0.4,1.1-0.6,2.3-0.7,3.5c0.1,0.3,0.2,0.5,0.3,0.7C18.5,509,18.9,504.8,18.9,504.8z"></path>
			<path class="st0" d="M192.5,213.4L192.5,213.4C192.5,213.4,192.5,213.4,192.5,213.4z"></path>
			<path class="st0" d="M188.7,171.9c-0.3,5.8,1.3,2.8,2,4.1c0.2,7.3-1.2,3.4-1.9,5.9c0.2,2.3,0.6,4.3,1.1,6.1
				c0.4,1.8,0.8,3.5,0.8,5.2c-0.2,0.3-0.3,0.9-0.6,0.2c1.3,4.7,0.8,14,2.7,19.3c-0.1,0.4-0.2,0.6-0.3,0.7c0.6-0.9,1.4-1.1,1.9-1
				c0.2,2.7,1.3,4.9,0.4,5.9c-0.1-1.6-0.5-1.7-0.8-2.5l0.6,2.8c-1.1,2.6-0.8-3.8-1.8-3.7c0.9,5.4,2.5,11.6,2.5,15.8
				c-1.2,1-1.3-9.7-2-4l-0.1-6.5c-1.7,5.1-0.2-3.9-2,0.8c0.4,8.5,1.5,9.4,1.9,17.9c0.9,1.8,1-0.7,1.9,1.1c2.5,11.8-2.3,9.8,0.3,18.4
				c1.1,2.2,2.8,2.9,2.6,9.2l-1.7-2c0.1,1,0.2,1.9,0.3,2.5c0.1,0.7,0.3,1.4,0.5,1.9c0.3,1,0.7,1.6,1,2.3c0.3,0.6,0.7,1.3,1,2.3
				c0.3,1.1,0.8,2.6,1.5,5c-0.4-0.3-0.7-0.9-1-1.6c-0.3-0.7-0.7-1.5-0.9-2.2c-0.4-1.4-0.7-2.4-0.6-1.7c0,0.8,0.1,1.5,0.2,2.1
				c0.1,0.6,0.3,1,0.4,1.4c0.3,0.8,0.6,1.2,1,1.6c0.3,0.4,0.8,0.7,1.2,1.2c0.5,0.5,0.9,1.2,1.7,2.2c-0.2,0.5-0.3,1.1-0.4,1.6
				c1.7,2.1,3.7,3.9,5.7,5.3c1.9,1.4,3.8,2.6,5.4,4c3.3,2.6,5.8,6,7.6,10.1c-0.6-0.3-1.5-1.5-1.1,0.5c0.6,1.2,1.1,2.7,1.6,4.1
				c0.5,1.5,1,2.9,1.5,4.4c0.5,1.5,0.9,3,1.4,4.5c0.4,1.5,0.7,3.1,1.1,4.6c0.3,1.6,0.6,3.1,1,4.6c0.2,0.8,0.3,1.5,0.5,2.3
				c0.2,0.8,0.3,1.5,0.4,2.3c0.4,3.1,0.8,6.1,1.1,8.9l1,2.1c0.3,0.7,0.6,1.4,0.9,2.1c0.1,1-0.2,2-0.6,0.9c0.2,4.5,0.7,0.1,1.5,2.2
				c0.4,2.5-0.2,3.4-0.7,1.9c0.3,1,0.5,2,0.8,3.2c0.3,1.2,0.6,2.4,0.8,3.7c0.5,2.6,0.9,5.4,1.3,8.3c0.4,2.8,0.6,5.7,0.7,8.4
				c0.1,2.7,0.1,5.2-0.1,7.3c-0.1-0.5-0.3-1.1-0.4-1.6c-0.2,6.6,2.5,7.4,1.6,13.5c-0.1-0.4-0.1-0.8-0.2-1.2
				c-0.3,14.3,0.3,30.2-1.7,41.2c1.6,2.1-1.1,14.2,1.1,15.2c-1.3,8.2-1.7,5.8-2.7,17.5c-0.2,3.1,1.4,4.7,1.6,8.5l-1.2,0.1l1.2,5.2
				l-1.4,2.8l0.4,3.6c0-1.4,0.5-3.1,0.8-2.9c0.7,5.6-0.6,13.8-1.1,14c0.6,4.4,1.1,8.9,1.7,13.3c-0.5-0.3-0.8-2.4-1.2-4.2
				c1.6,7-1.2,1.4,0.3,7.7c0.2-0.9,0.7,0.4,1,0.6c-0.5,3.3-0.2,10.6,0.3,16l-0.9-1c0.2,9.8,1.1,20.7,1.3,31.7c0.3-4,1.7-3.1,1.9,0.1
				l-1.2,1.3c0.8,2.1,0.4-3.4,1.4,0.9c-0.1,4.1-1.4,2.8-1.8,0.4l0.5,5c-0.4,0.3-0.6-0.9-1.1-1.2c0.8,2-1.2,8.6,0.2,11.6l-0.4,0.3
				c0,11,0.4,15.9,0.2,24.8c1.1,0.2,0.7,3.7,1.4,6.4c-0.3,3.3-0.9,6.7-1.5,10.1c-0.3,1.7-0.7,3.5-1,5.2c-0.2,0.8-0.4,1.7-0.6,2.4
				l-0.2,0.5l-0.1,0.2c0,0.1-0.1,0.2-0.2,0.3c0,0.3-0.2,0.4-0.2,0.5c-0.1,0.1-0.1,0.2-0.2,0.3c-0.1,0.1-0.2,0.3-0.3,0.3
				c-0.1,0.2-0.1,0.3,0,0.4c0.1,0.2,0.3,0.3-0.4,1.1c-0.2-0.2-0.8,0-1.4,0.2c-0.7,0.2-1.5,0.5-2.2,0.7c-1.4,0.5-2.2,0.7-0.7-0.5
				c-4,2-6.7,3-9.7,4.2c-1.5,0.6-3.1,1.1-5,1.8c-0.9,0.3-2,0.6-3.2,1c-1.2,0.4-2.4,0.8-3.8,1.1c1.3,0.2,2.8,0,2.1,0.5
				c-2.1,0.6-4.9,0.6-4.7,0l0.5-0.2c-6.4,2-14.2,2.2-21.5,2c-7.4-0.2-14.4-0.6-19.7,0.4l0.6-0.1c-3.7,0.3-7.4,0.7-11.1,0.9
				c-5.1-0.3,3.1-0.7-0.7-1.4c-12,1.3-18.9-1.1-28.9-0.6c-7.5-3.4-27.2-1.7-37.6-4.1l0.6,0.7c-2.7,0.6-3.3-0.6-5.3-0.8
				c0.3,0.6,2.9,0.8,1.2,1.1c-5.8-0.1-11.6-0.1-17.5-0.2c-1.5,0-3,0-4.5,0c-1.5,0-2.9,0-4.3,0c-2.9,0-5.7-0.2-8.4-0.5
				c-2.7-0.3-5.3-0.8-7.8-1.6c-1.2-0.4-2.4-0.8-3.5-1.4c-0.3-0.1-0.6-0.3-0.8-0.4l-0.2-0.1c-0.1,0,0,0,0,0c0,0,0,0,0,0
				c-0.1-0.1-0.1-0.1-0.1-0.2c0,0,0-0.1,0-0.1c-0.1-0.2-0.2-0.5-0.3-0.7c-0.2-0.5-0.4-1.1-0.6-1.7c-0.4-1.2-0.7-2.5-1-3.8
				c-0.6-2.7-1.1-5.4-1.6-8.2c-0.7-4.1-1.7-5.1-2.7-6.4c-0.9-1.3-1.7-3-1.7-8.4l1.7,2.8c-2-8.3-3-17-3.9-25.7s-1.6-17.3-2.9-25.6
				c0.4,1,0.8,1,0.9,2.6c0.6-3.6-1-13.1-1.7-13.1c-0.1-2.6,0.6-0.7,0.9-2.3c0.3-3.6-1.7-8.8-0.9-10.8c0.1-0.3,0.4,1,0.5,1.6
				c-0.6-2.3-0.5-10.8-1.4-8.5c0.2-6.3-1-12-0.5-17c-1.3-3.2,0.4-10.8-1.2-11.8c0.9,0.2,1.2-2.5,1.4-5.7c0.1-3.2,0.1-6.9,0-8.9
				c0.4,1.4,0.9-3.3,1.5-1.7c0.6-4.4,0.8-8.7-0.2-8c1.6-4.1,1.7-8.4,1.8-12.2c0.1-1.9,0-3.8,0.2-5.4c0.2-1.6,0.5-3,1.3-4.2
				c-0.1-13.8-0.5-26.3-0.5-38.5c1.7,0.5-0.2,13.5,1.6,13c-0.4-11.6-1.7-18.3-1-29.8c0.3-3,0.7,1.7,1,2.7
				c-0.4-11.6,0.7-22.3,0.2-32.6c0.2,0,0.3,1.1,0.4,2.2c0-2,0.4-4.7-0.4-4.5l0.1,2c-1.3,3.2-2.1-8.1-2.7-8.5c1.1,1.8,1.3-0.8,1.6-3
				c0.3-2.3,0.7-4.3,2-1.5c-0.1-1.3-0.4-3-0.9-2.7c0.3-2,0.6-2.6,1.1-0.5c0-3.6-0.3-4.8-0.5-5.9c-0.2-1.1-0.4-2.1-0.1-5.3
				c0.4,0.1,0.4,1.4,0.8,2.1c-0.2-1.7-0.5-3.3-0.5-5.2c0-1.9,0.1-4,0.9-6.5c0.2,0.4,0.6-0.2,0.2,1.3c0.2-1.1,0.5-2.1,0.7-3.1
				c0.3-1,0.5-1.9,0.8-2.8c0.6-1.9,1.4-3.6,2.3-5.3c1.9-3.4,4.8-6.5,9.1-9.3c-1.4,3.1,3.1-1.7,4.4-0.8c1.4-1.2,2.9-2.4,4.4-3.7
				c-0.8,0.3-1.5,0.5-2.3,0.8c2-1.5,3.8-3.1,5.5-4.8s3.2-3.4,4.8-4.9c-0.7,1.1-1.5,2.2-2.3,3.3c2.3-2.4,4.4-5,6-8
				c-1.1,1.5-2.4,3-3.7,4.3c0.7-1.1,0.9-1.8,0.9-2.1c0-0.4-0.2-0.5-0.3-0.6c-0.2-0.3-0.1-0.5,1.7-3.3c-0.3,0.6,0.4-0.5,1.2-2
				c0.4-0.8,0.9-1.7,1.3-2.6c0.4-0.9,0.8-1.7,1.2-2.3v0c0.1-1.3,0.1-2.6,0.3-4c0-1.4,0.2-3,0.5-4.8c0.5-0.9,1.5,0.9,1.9,0.3
				c-1-2.5,0.5-11.6-0.7-14.8c0.3,1,1,1.1,1.2,0.8l-0.9-2.1c0.4-2.3,0.6-2.6,1.2-2.2c0.5-6.9-1.9,2.1-0.7-6c0,0.6,0.2,0.3,0.3,1.7
				c0.8-8.2,0.1-15.9,0.9-23.4c1.5-2.2,0.1,6.6,1.4,4.1c0.2-10.9-0.9-22.6-0.2-33.1l-0.2,1.9c-2-1.5,1.3-7.8,0.5-13.1
				c0.1,1.3,1.1,1.7,0.9,1.4c0.5-7.2-0.1-14.7-0.5-25.7l0.5,1.4c0.6-4.2,0.5-11.2,0.8-15.8c-0.5-1.4-0.4-4-1.2-2.4
				c0.4-1.8,0.7-3.5,0.8-5.3c0.1-0.9,0.1-1.7,0.2-2.6l0-1.3l0.1-1.1c0.2-3.1,0.5-6.4,0.8-9.6c0.7-6.5,1.4-12.8,3.9-18.7
				c-0.3,1.5-0.3,3.6,0,2.4l1.6-10.6c-1,0.7-0.8,1.3-1.9,3.3c-0.3-1.4-0.1-4.5,0.4-7.1c-0.3,4.8,1.4,0.2,2.3-1.7
				c-0.3,0.3-0.5-0.5-0.8-0.3c1.3-2.6,0.8-2.9,0.4-3.5c-0.2-0.3-0.4-0.6-0.5-1.4c0-0.7,0.1-1.9,0.7-3.7l0.4,0.5c0-0.7,0-1.4,0-2.1
				c0-0.7,0-1.4-0.1-2.1c0-1.4-0.1-2.8,0-4.4c1.1-1.3,0.4,3.1,1.2,3.3c0.1-1.1-0.1-2.2-0.2-3.3c-0.1-0.6-0.3-1.1-0.4-1.7
				c-0.1-0.5-0.3-1.1-0.5-1.6c-0.7-2-1.3-4-1.1-6c0.6,1.8,1.1,4.4,1.7,6.1c0.5-4.4,0.1-4.8-0.3-8l0,0.3c-0.2-2.4-0.5-4.9-0.7-7.2
				l0,1.9c-1.7-2.4-2.3-5.1-2.3-8c0-1.4,0.2-2.8,0.7-4.2c0.5-1.4,1.3-2.8,2.2-4.4c-0.9,1.5-1.1,2.5-1.2,2.9c0,0.4,0.1,0.5,0.3,0.3
				c0.2-0.1,0.5-0.4,0.8-0.6c0.3-0.2,0.6-0.2,0.7,0c1.2-1,3.4-2.5,3.1-1.7c0.9-1.4,2.1-2.1,3.4-3c1.3-0.9,2.8-1.9,4.3-3.9
				c0.4,0.2,3-2.2,2.9-0.9c3.4-2.9-1.2,0.1-1.2-0.5c1.2-1.3,2.7-2.5,4.3-3.6c0.8-0.6,1.6-1.1,2.5-1.6c0.9-0.5,1.8-1,2.7-1.5
				c3.8-1.9,7.9-3.4,12.2-5.4c3.9-1.3,6.3-2,8.6-2.6c2.4-0.6,4.8-1.1,8.8-1c1.3,0.5,0.7,0.7-0.2,0.9c-0.9,0.2-2.1,0.3-2.1,0.3
				c4.2,0.9,7.3,1.3,11.3,1.8c-0.9,0.1-0.1,0.6,1,1.3c3.1,0.7,2.4-0.8,6.4,0.9c-0.8,0.2-1.9,0.5-3.5,0.5c3.7,0.7,7.5,1.2,11.3,2.3
				c0.7,1-2.6,0.1-4,0c4.2,1.1,10.9,3.6,12.5,3.2l-2.5-1.5c1.5,0.6,0.4,1.1-0.8,0.9c-3.8-0.7-5-2.4-5-2.8c0.9,0.3,1.8,0.5,2.7,0.8
				c-0.9-1.6-3.6-2.5-6.8-3.2c-3.1-0.7-6.7-1.2-9.4-1.9c0.9-0.3,1.8-0.6,2.7-0.9c-2-0.1-4-0.1-6-0.1c-1.1-0.6-1.8-1.7,1-1.4
				c-3.9-1.6-3.7-0.2-7-1.6c-0.4-0.2-0.2-0.2,0.2-0.3c-1.4,0-2.7,0-4.1,0.1c0.8-0.3-0.6-1.2,1.9-0.7c-3.6-0.8-6.7-0.5-9-0.1
				c-1.2,0.2-2.2,0.4-3.1,0.6c-0.9,0.1-1.7,0.2-2.5,0c0.2-0.1,0.4-0.1,0.6-0.2c-1.3,0.3-2.2,0.6-2.9,0.8c-0.7,0.3-1.2,0.4-1.5,0.6
				c-0.6,0.3-0.6,0.5-0.5,0.7c0.2,0.4,0.6,0.7-2.6,2.5c-1.9-0.4-3.8-0.6-5.8-0.7l-0.4,1.5c-1,0.4-2.8,1.4-2.7,0.8
				c-2.9,2.7,0.8,0.1-0.7,1.9c-2.4,0.8-5.1,3.1-7.4,4.8c-2.3,1.8-4.3,3.2-5.4,2.8c-0.9,1.8,4.2-2.3,0.3,1.4c-1.2-0.4-2.4,0.6-3.8,2
				c-1.4,1.4-2.9,3-4.9,4.3c0.3-1.8,4.1-4.3-0.1-1.9c-0.5,1.6-2.2,3.1-3.7,5.4c-0.7,1.1-1.3,2.5-1.6,3.8c-0.3,1.3-0.4,2.5-0.3,3.6
				c0.7,0.1,0.9,2.2,1.4,5.1s1,6.4,1.8,9.6c-0.1-0.1-0.1,0.6,0,1.8c0.1,0.6,0.1,1.3,0.2,2.1c0.1,0.8,0.2,1.8,0.2,2.6
				c0,0.4,0,0.8,0,1.3c0,0.5-0.1,0.9-0.1,1.4l-0.1,1.4c-0.1,0.5-0.1,1-0.2,1.5c-0.3,1.9-0.6,3.7-0.9,5.2l-0.2-0.2
				c1.3,1.3,0,7.3-0.5,11.7c-0.8-0.3-1-1.2-0.9-3.6l-0.8,4.1c0.3,1.1,0.3,2.4-0.1,5.1l-0.8-1.2c-1,5.5-1,11.3-3.1,18.2
				c0.9,0.6,3.8-5.1,3,2.5c-0.6,0.2-1.5,0.3-1.4-1.7c0,0.7,0,2.4-0.5,3.6l-0.3-3.2c-1,3.2,0.4,1.8-0.1,4.4c-0.7-0.2-0.9,1.8-1.4,1.4
				c0-0.7,0.7-2.2,0.6-3.3c-0.7,2.9-1.7,6.4-2.4,7.6c0.5-0.2,1,0.1,0.9,2.4c-0.1,1.4-0.1,2.4-0.3,2.9c-0.1,0.6-0.2,0.7-0.4,0.8
				c-0.3,0.2-0.6,0.1-0.8,1.7c0.6,1.3,0,4.9,1.1,5c0,1.6-0.6,1.9-0.9,2.6c0.5,2.9-0.1,13.5,1.2,10.3l0.1-0.7c0,0.1,0,0.3,0,0.5v0v0
				c1,9.5-1.1,19.7-0.9,29.1l-0.4,0c0.3,5.6-0.1,12.5,0.6,16.6c-0.1,1.7-0.8,3.9-1.3,3.2c0.1,4.3,0.6,4.8-0.3,11
				c-0.5-4.3-0.6,1.5-0.3-4.4c-0.5,5.6-1.2,6.8-0.4,12.8c-0.9-2.1-1.4,4.2-1.2,6.8l0.8-3.9c0,3-0.2,5.6-0.4,8.2l-1.2-1.5
				c-2,11.3,1.7,20.7-1.4,29.2c0.7,3.1,1-6.1,1.9-3.4c-0.2,2.6-0.9,5.3-1.5,7.4c-0.6,2.2-1.2,3.9-1.3,4.7c-0.3,1.8-0.4,2.9-0.4,3.9
				c0.1,1,0.1,1.8,0.2,2.6c0.1,1.6,0.3,3.4-1.3,6.4c0.4-0.3,0.9-0.5,1.2-0.1c0.2,0.5,0.2,1.7-1,4.2c-1.4,2.1-2.9,3-3.6,3.1
				c-0.7,0.1-0.8-0.7,0-2c0.7-0.9,1.1-1.3,1.2-1.2c0.7-1.4,1.6-3.2,0.2-1.9l0.1,0.8c-0.4,0.5-1,1.1-1.5,1.8c-0.6,0.7-1.3,1.4-1.9,2
				c-1.3,1.2-2.3,1.9-2,1.1c-1.2,1.4-1.4,1.8-0.9,1.6c0.4-0.1,1.4-0.8,2.4-1.7c-2.4,2-4.3,3.5-6.4,5.1c-2,1.6-4.2,3.1-7.2,5
				c1.1-0.5,2.2-0.6,1.3,0c-4.4,2.9-5.1,3.9-5.5,4.6c-0.3,0.8-0.4,1.2-2.8,3.9c-1.7,1.3-1.7,0.8-1.9,0.6c-0.1-0.1-0.3,0-0.6,0.4
				c-0.4,0.4-1,1.3-2,3c-1.5,1.8-1.8,1.9-1.8,1.3c0.1-0.6,0.6-2,1-2.9c-1.7,3.2-3.3,6.2-4.5,8.9c-1.2,2.7-2.2,5.2-2.5,7.2
				c0-1.2,0.2-2.5,0.3-3.8c-0.3,2.2-0.5,4-0.8,5.9l1.2-1.9c-0.2,1-0.4,2-0.6,2.7c-0.2,0.7-0.3,1.1-0.5,1.1c0.4,2.1,1.7-1.4,2.1,2.7
				c-0.8,2.6,0,8-1.3,8.9c0.9-8.3-1.3,0.8-1-6.2c0.1,1.4,0,3-0.3,5c-0.2,0.3-0.2-0.3-0.3-0.8c-1.5,7.9,1.2,3.7,0.8,11.9
				c-0.6-1.1-1.4,1.8-1.3,3.2c0.1-3.3,1.2-1.5,1.6,1.5c-0.7,5.2,0.2,5.7,0,8.4l0.4-3.1c0.6,1.1,0.5,3.7,0.6,7.3
				c-0.6,0.3-0.3-3.3-0.5-2c1.1,4.1-1.5,9.1-0.9,14.8c-0.5,2.6-1.3,0.2-1.7,2.5c0.7,6.3-1.1,6.8-0.6,13.5c1-1.9,0.8-2.2,1.5,2.5
				L15.6,393l1.2,7c0.1-3.3-0.4-7-0.2-8.9c0.7,3.4,0.4,3,1.2,1.4c-1.5,4.5,0.6,8.9-0.5,14.1l-2.3-0.2c-1.2,7.8,0.8,13.9-0.1,24.1
				l0.5-3.2c0.9,1.4-0.1,6.3,0.1,9.6c-0.8-0.3-1.1,1.7-1.6,3.1c0.6-0.1-0.4,7.4,1,8.4l-1.3,4.4c-0.3,2-0.3,3.6-0.3,4.9
				c0,1.4,0.2,2.6,0.3,3.7c0.3,2.3,0.6,4.7,0,8.5c-0.5-2.5-1.5,1-1.4-4.3c-0.3,2.6-0.8,4.9-0.3,5c-0.7,1.4,0,7.3-1,9.7
				c0.2,1.2,0.9,1.6,0.6,4.6c-0.2,0.3-0.4,0-0.4,0c0.3,0,0.2,4.7,1.2,2.2c-1.4,4-1.4,9.8-1.3,15.3c0.1,5.6,0.4,11-0.5,14.6
				c0.5,5.8,1.1,12.7,1.4,17.9c-0.3-0.3-0.4,0-0.4-1c-0.3,7.2,2.4,4.3,2.2,12.5c-0.9,4.3-1-4.3-1.3-1.7c-2.4,1.3,1,9.9,0,15.5
				l-0.3-1.3c-0.5,4.3,1.8,10.2,2.3,17.1c0,0-0.3-0.3-0.4,0c1.7,4.6,3.1,13.4,4.3,20c-1.2-1.9-0.9-2.9-1.7-1.6
				c0.5,2.9,1.5-1.1,2.5,4.8c-0.3,2-0.2,6.3-1.1,7l-0.8-5.6c-1,3,1,7.2,1.3,10.2l-0.7-0.3c0.8,4.3,1.6,6.4,2.4,8.5
				c0.8,2.2,1.6,4.4,2.6,9l0.2-1.1c1.3,2.3,1.4,3.4,1.5,4.5c0.1,1.1,0,2.3,1.7,4.5c-0.1,0.4-0.2,0.7-0.3,1.1
				c-0.1,0.4-0.1,0.9-0.1,1.3c0.4,0.5,0.8,1,1.5,1.5c0.1,0.1,0.3,0.2,0.5,0.3c0.2,0.1,0.4,0.2,0.6,0.3c0.4,0.2,0.9,0.3,1.3,0.5
				c1.4,0.5,3,0.9,4.7,1.2c3.4,0.6,7.1,0.8,10.1,0.9c-1.8,0.4-4.5,0.6-7.4,0.3c-1.4-0.1-2.9-0.3-4.3-0.7c-0.7-0.1-1.4-0.3-2-0.5
				c-0.3-0.1-0.6-0.2-1-0.3c-0.3-0.1-0.5-0.2-1-0.3c0.2,0.1,0.5,0.2,0.8,0.4c0.2,0.1,0.5,0.2,0.8,0.3c0.6,0.2,1.2,0.5,1.8,0.7
				c1.3,0.4,2.7,0.8,4.1,1.1c2.8,0.5,5.3,0.6,6.3,0.3c-1.4,0-3.2,0.1-4.5-0.4c4.5-0.3,9.8-0.6,16.4-0.7c-0.6,1.5,3.8,1.6,8.7,1.6
				c5,0.1,10.7,0.3,13,1.5c11.5-0.7,22.8,1.7,36.3,2.5c-4.6-2.6,3.9,0.2,3.3-2.2c3.2,0.1,4.4,0.2,4.6,0.3l9.5,2
				c2.2,0.8-3,0.3-2.8,0.9c6.9,0.6,2.8,1.2,7.4,2c-0.9-0.9,2.5-1.1,6.4-0.6l-5.5-1.4c9.7-0.8,8.3,2.4,18.1,1.4l-3.1,0.7
				c1.3-0.1,3.1-0.1,5.1-0.1c2.1,0,4.4,0,6.7-0.1c4.7-0.2,9.3-0.7,11.7-1.7c0.9,0.2,2.1,0.8-0.1,1.1c6.1-0.1,12.8-1.1,19.1-2.2
				c3.2-0.6,6.3-1.2,9.1-1.8c2.9-0.6,5.6-1,7.9-1.4l-0.8,0.8c2.2-0.7,3.6-2,6.6-2.2c-0.1,0.3-0.7,0.8,0.3,0.6
				c1.1-0.5,5.6-2.8,8.5-3.7c-0.7,0.5-1.5,1.1-2.2,1.6c1.5-0.4,2.9-1,4.2-1.5c0.7-0.3,1.3-0.5,1.9-0.8c0.6-0.3,1.2-0.6,1.8-0.9
				c1.1-0.6,2.2-1.2,3.2-1.9c0.5-0.4,1-0.7,1.5-1.1l0.7-0.5l1.1-0.7c0.3-0.3,0.7-0.5,0.9-0.8c0.3-0.3,0.5-0.6,0.8-1
				c0.2-0.3,0.4-0.7,0.6-1.1c0.2-0.4,0.3-0.8,0.4-1.1c0.1-0.4,0.2-0.8,0.3-1.2c0.1-0.4,0.1-0.6,0.2-0.9c0.1-0.6,0.2-1.2,0.2-1.7
				c0.2-2.3,0.3-4.5,0.5-6.9c0.8,0.1,1.7-2.2,2.3-5.1c0.6-2.9,1-6.4,1.2-8.7l0.2,0.2c0.4-6.9,0.1-12.7-0.3-18.3
				c-0.4-5.7-1-11.2-1.4-17.5c1.8-7.8,0.3-26.4,0.9-39c-0.2,1.9-1.3-0.3-1.6-2.5c0.2-3-1.5-8.1,0.1-7.7l0,1.1
				c1.4-2.3,0.8-8.3,0.5-13.1l-2.1-0.7c0.5-3.2,0.7-6.7,0.6-10.3c0-1.8-0.2-3.7-0.3-5.6c-0.1-1.9-0.2-3.7-0.3-5.6
				c-0.5-7.3-0.8-13.9,0.5-17.3c-0.5-2.9-0.4-6.6-0.9-9.6l1.1,0.2c0.4-8.2,0.7-12.3,0.7-22.4l0.7,2.1c0.2-5.7-2.9-7.3-2.9-12.6
				l1.7-1.6c0.1-5,0.6-10,0.8-15.1c0.1-2.5,0.2-5,0.2-7.6c-0.1-2.5-0.3-5-0.6-7.5c0.2,0.2,0.7,0.5,0.8,2.1c0-2.4,0.3-7,0.2-10.8
				c-0.1-3.8-0.5-6.8-1.6-5.9c0.4,0,0.5-0.7,0.6-1.8c0-0.5,0-1.2,0-1.9c-0.1-0.7-0.1-1.5-0.3-2.3c-0.4-3.3-1.1-7.2-1.6-9.9l1.1,0.8
				c-1.7-4.5-2.2-4.6-3.1-11c0-1.5,0.7-1.4,0.6,0.6c0.1-5.1-1.4-3.8-1.7-10l1,2.2c-0.6-5.2-1-4.7-2.1-7.5c-1-3.2-1.6-9.8-0.8-10.7
				c-0.4-0.3-0.9-1.1-1.3-2.2c-0.5-1.1-1-2.5-1.2-4c0.3-0.5,0.8,0.6,1,1.1c-0.7-4.3-1.8-7.4-2.8-10.2c-1.1-2.7-2.1-5.1-2.5-8.1
				c0.3-0.2,0.4-0.7,0.3-1.2c1,3.3,1.9,6.4,2.6,8.5c0.6,2.1,0.8,3.4,0.7,3.1c0.5-0.1,0.4-1.6,0.5-2.5c0.1-0.5,0.1-0.8,0.4-0.7
				c0.3,0,0.6,0.4,1.2,1.4c-0.4-1.1-1.1-2.3-1.8-3.6c-0.7-1.3-1.4-2.8-2.1-4.2c-0.7-1.5-1.4-3-1.9-4.4c-0.1-0.4-0.3-0.7-0.4-1.1
				c-0.1-0.4-0.3-0.8-0.5-1.1c-0.3-0.7-0.6-1.5-0.8-2.2c0-0.3,0-0.6,0-0.9l0.3,0.5c-0.4-1.3-1.2-2.4-1.8-3.4
				c-0.4-0.9-0.8-1.6-1.2-2.3c-0.2-0.3-0.4-0.7-0.6-1.1c-0.2-0.4-0.5-0.7-0.8-1.1c0-0.3-0.2-0.8-0.6-1.4c-0.4-0.7-1.1-1.4-1.9-2.2
				c-0.7-0.8-1.6-1.5-2.4-2.2c-0.8-0.6-1.5-1.2-2.1-1.7c-0.5,1-3.2-1.4-1.1,1.4c-0.3-0.3,0.5,0.2,2,1.4c0.4,0.3,0.8,0.6,1,0.8
				c-0.1,0-0.1,0-0.2-0.1c1.5,1.2,3.4,3.2,5.2,5.5c-1.9-1.6-3.8-3.2-5.9-5.7c-1.6-0.4-3.3-0.9-4.2-1.1c-1-1.8-2.8-3.9-3.7-5.8
				c-0.3-0.5-0.4-1-0.6-1.4c-0.1-0.4-0.3-0.8-0.4-1.2c-0.1-0.8-0.2-1.3-0.1-1.6c-0.3-0.3-0.4-0.8-0.6-1.1c-0.2-0.4-0.4-0.8-0.6-1.2
				c-0.3-0.9-0.6-1.9-0.9-2.9c-0.2-1-0.4-2.1-0.6-3.1c-0.2-1.2-0.4-2.3-0.5-3.5c-0.8-4.5-1.6-8.7-2.9-11.2c-0.5-2.4,0.3-2.8,0.5-3.7
				c0.3,1.4,0.5,3,0.8,3.7c-1-4.7-1.6-14.1-3.2-15.1c0.1-6.1,1.6,3.3,0.6-5l0.5,1.1c0.4-8.2-1.1-14.8-2.5-21.5
				c-1.3-6.8-2.6-13.8-1.5-22.9c-0.1,1.3-0.2,1.9-0.4,2.1c0.1-5.2,0.1-10.4,0.3-15.5c0.2-5.3,0.3-10.7,0.2-16
				c-0.1-10.7-0.6-21.3-0.8-31.7c-0.1-3-0.5-4.6-1-5.9c-0.5-1.3-1-2.3-1.7-4l0.9-1.4l-2.3-5.8c-2.4-8.3,0.3-15.2-3.5-25.6l-0.5,1.5
				c-0.6-3.9-2.7-12.1-1.7-11.6c-0.2-0.4-1-1.1-0.9-2.7l0.6-0.2l-2.7-9.3c-0.8-7.4,2.6,0.7,0.9-10c-0.9-3.9-3.6-11-3.8-9.5
				c0.2,1.6,0.3,4.2-0.3,4.4l-0.9-3.6c-1.9-0.4-4.2-2.9-3.9,6.3l2.1,6.1l-0.5,2.2l-0.9-5.3c-0.3,3.1,0.7,4.9,1.6,6.9
				c-0.4,0.6-0.5,1.5-0.5,2.8l2.8,5.8c-0.6,0.9-1.9-2.5-1.5,1.7c1.3,2.7,1.1-3,2.4,1.6c-0.3,3.1-1.1,2.4,0.3,5.7
				c-0.4,0.6-0.8-0.1-1.2-1.5c1.1,3,1.7,8.2,3,9.6c-0.4,3.3,2.2,10.4,0.4,10.4c0.6,0.9,2.3,5.2,2.9,8.1c-2.9-4.9,1.7,10.7-0.7,9.7
				c1.2,1.8,2,5.3,2.7,9c0.7,3.8,1.1,7.9,1.9,11.3c-0.2-0.4-0.5-1.1-0.5-1.7c0.2,3.8-0.3,5-0.5,7.4c1.6,0.4,2.2,6.4,3.2,9.6
				c-1.4,4.8-1.8-2.8-3.2-1.3c1.2-0.3,1.3,8.2,2.3,6.6c-0.9,3.6-0.4,3.1-1.7,5c1.9,0.7,0.3,3.4,1.3,6.4c-1.1,5.2-1.8,1.3-1.5,7.1
				C189.1,177,188.6,171.9,188.7,171.9L188.7,171.9z M221.3,303.5L221.3,303.5c-0.5-1-0.8-1.9-1.1-2.4
				C220.5,301.5,220.7,302.2,221.3,303.5L221.3,303.5z M224.8,314.3c-0.4-1.3-0.9-3-1.4-4.8c0.2-0.5,0.7-0.2,1.1,0.9
				C224,309.9,224.6,312.5,224.8,314.3L224.8,314.3z M220.4,288.2c1.6,1.4,1.9,2.1,1.9,2.5c-0.6-0.8-1.5-1.6-2.6-2.6
				c-0.1,0-0.2-0.1-0.3-0.1C219.7,288,220,288.1,220.4,288.2L220.4,288.2z"></path>
			<path class="st0" d="M216.7,286.8c-0.2-0.2-0.4-0.2-0.7-0.4c0.3,0.3,0.5,0.6,0.7,0.9c0.3,0.1,0.5,0.1,0.7,0.2
				C217.3,287.3,217,287,216.7,286.8L216.7,286.8z"></path>
			<path class="st0" d="M64.8,156.9l0,0.2c0-0.2,0.1-0.4,0.2-0.5C64.9,156.8,64.9,156.8,64.8,156.9z"></path>
			<polygon class="st0" points="231.7,473.2 232,473.2 231.7,472.2 			"></polygon>
			<path class="st0" d="M76.2,93.9c0.1-0.1,0.3-0.3,0.4-0.8C76.5,93.1,76.4,93.5,76.2,93.9z"></path>
			<path class="st0" d="M76.8,65.7l-0.3-3.9C76.6,63.5,76.7,64.7,76.8,65.7z"></path>
			<path class="st0" d="M77.4,47.2c0-0.3-0.1-0.4-0.1-0.6c0,0,0,0,0,0L77.4,47.2z"></path>
			<path class="st0" d="M24.6,367.4c0,0.3,0,0.6,0,0.8C24.7,370.2,24.7,368.9,24.6,367.4z"></path>
			<path class="st0" d="M62.2,281.9c-0.1,1.1-0.3,2.2-0.6,3.4c0.3-0.9,0.7-1.7,0.8-2.3C62.5,282.4,62.5,282,62.2,281.9z"></path>
			<path class="st0" d="M19.8,480.2C19.8,480.2,19.8,480.2,19.8,480.2c0,0.2-0.1,0.4-0.1,0.7L19.8,480.2L19.8,480.2z"></path>
			<path class="st0" d="M59.5,289.8c0.5-0.8,1-1.6,1.3-2.3c0.3-0.8,0.6-1.5,0.8-2.2c-0.3,0.7-0.7,1.5-1.1,2.3
				C60.2,288.3,59.8,289.1,59.5,289.8L59.5,289.8z"></path>
			<path class="st0" d="M157.3,32.6l0.9,0.4c0-0.1,0.1-0.1,0.2-0.1L157.3,32.6L157.3,32.6z"></path>
			<path class="st0" d="M158.4,32.9l1.1,0.3C159.1,33,158.6,32.8,158.4,32.9z"></path>
			<path class="st0" d="M161.8,33.9l-2.3-0.7C160.3,33.5,161.2,33.9,161.8,33.9z"></path>
			<path class="st0" d="M131.3,24.2l-0.4,0.3C131.1,24.5,131.2,24.4,131.3,24.2z"></path>
			<path class="st0" d="M123.1,23.7c1.9,0.1,4.8,1,7.5,1.1l0.3-0.3c-0.7,0.2-2.1-0.2-3.7-0.6C125.7,23.7,124,23.4,123.1,23.7
				L123.1,23.7z"></path>
			<path class="st0" d="M89.3,31.4l3-2c1-0.7,2-1.4,3.1-2c-0.7,0.2-1.4,0.4-1.7,0.3c-0.2-0.1,0-0.5,1.4-1.4c-2.2,1-3.1,1.7-3.4,1.9
				c-0.3,0.3,0,0.3,0.3,0.3C92.5,28.5,93,28.7,89.3,31.4L89.3,31.4z"></path>
			<path class="st0" d="M71.6,46.5c0.5-1.1,0.8-1.6,0.8-1.8c0.1-0.2-0.1-0.1-0.3,0c-0.4,0.4-1.2,1.4-1.2,1.2
				c-0.5,1.5-0.6,2.5-0.5,2.7C70.5,48.8,70.7,48.1,71.6,46.5z"></path>
			<path class="st0" d="M62.6,207.1l-1-0.4C61.6,209.6,62,206.7,62.6,207.1z"></path>
			<polygon class="st0" points="66.5,238 67.2,235.1 66.4,233.7 			"></polygon>
			<polygon class="st0" points="58.6,255.8 58.5,254.5 58.6,259.4 			"></polygon>
			<path class="st0" d="M9.5,510.9l1.2-0.9C10.4,508,9,507.5,9.5,510.9z"></path>
			<path class="st0" d="M22.4,627.4c-0.3,1.4,0.2,4.8,1.5,6.7C23.1,631.4,22.9,628.7,22.4,627.4z"></path>
			<polygon class="st0" points="242.2,503.9 242.8,506.1 242.2,501.8 			"></polygon>
		</g>
	</g>
	
		<image style="overflow: visible" width="4100" height="4200" xlink:href="/1.Licorne-Mockup-33cl-IPA.0b9dade0.png" transform="matrix(0.1605 0 0 0.1605 -201.1485 2.8858)">
	</image>
</g>
</svg>
